<svg width="32" height="32" viewBox="0 0 32 32" fill="none" xmlns="http://www.w3.org/2000/svg">
<path d="M5.3335 16.0002C5.3335 14.4519 5.3335 13.6778 5.42852 13.0291C6.00482 9.09473 9.09473 6.00482 13.0291 5.42852C13.6778 5.3335 14.4519 5.3335 16.0002 5.3335V5.3335C17.5484 5.3335 18.3225 5.3335 18.9712 5.42852C22.9056 6.00482 25.9955 9.09473 26.5718 13.0291C26.6668 13.6778 26.6668 14.4519 26.6668 16.0002V22.788C26.6668 24.556 26.6668 25.44 26.1467 26.0121C26.104 26.0591 26.0591 26.104 26.0121 26.1467C25.44 26.6668 24.556 26.6668 22.788 26.6668H16.0002C14.4519 26.6668 13.6778 26.6668 13.0291 26.5718C9.09473 25.9955 6.00482 22.9056 5.42852 18.9712C5.3335 18.3225 5.3335 17.5484 5.3335 16.0002V16.0002Z" stroke="#B0A9F5" stroke-width="2"/>
<path d="M12 14.6665L20 14.6665" stroke="#B0A9F5" stroke-width="2" stroke-linecap="round" stroke-linejoin="round"/>
<path d="M16 20H20" stroke="#B0A9F5" stroke-width="2" stroke-linecap="round" stroke-linejoin="round"/>
</svg>
