<svg width="32" height="32" viewBox="0 0 32 32" fill="none" xmlns="http://www.w3.org/2000/svg">
<path fill-rule="evenodd" clip-rule="evenodd" d="M17.3314 9.33524L19.9998 6.66685C21.1765 5.4901 21.7649 4.90172 22.487 4.83668C22.6064 4.82592 22.7265 4.82592 22.8459 4.83668C23.568 4.90172 24.1564 5.4901 25.3331 6.66685C26.5099 7.84361 27.0982 8.43198 27.1633 9.15409C27.174 9.27347 27.174 9.39357 27.1633 9.51295C27.0982 10.2351 26.5099 10.8234 25.3331 12.0002L25.3331 12.0002L22.6942 14.6391C20.4738 13.3582 18.6286 11.5269 17.3314 9.33524ZM15.8771 10.7896L6.18948 20.4771C5.76442 20.9022 5.55189 21.1147 5.41216 21.3758C5.27242 21.6369 5.21348 21.9317 5.09559 22.5211L4.14686 27.2648C4.08034 27.5974 4.04708 27.7637 4.14168 27.8583C4.23629 27.9529 4.4026 27.9196 4.73521 27.8531L9.47886 26.9044L9.47888 26.9044C10.0683 26.7865 10.363 26.7275 10.6241 26.5878C10.8852 26.4481 11.0978 26.2355 11.5228 25.8105L21.2361 16.0972C19.0666 14.7521 17.2357 12.9339 15.8771 10.7896Z" fill="#B0A9F5"/>
</svg>
