<svg width="60" height="60" viewBox="0 0 60 60" fill="none" xmlns="http://www.w3.org/2000/svg">
<path d="M22.2339 4.50229C22.0144 4.74328 22.0144 4.46212 22.2439 14.3931C22.3836 20.6087 22.3736 21.1008 21.9844 22.4162C21.6451 23.5509 21.2659 24.2036 17.8632 29.4552C14.4205 34.7571 14.3905 34.8173 14.7997 35.3295C15.0591 35.6508 15.6279 35.6508 15.9472 35.3194C16.0769 35.1788 17.2544 33.4216 18.5617 31.4033C19.8689 29.3849 21.246 27.2662 21.6252 26.6838L22.3137 25.6294L22.2539 26.3223C22.2139 26.7039 22.0942 27.4469 21.9844 27.9591C21.7848 28.8427 21.7848 28.913 21.9445 29.154C22.2439 29.6159 22.8925 29.6962 23.2218 29.3146C23.4713 29.0134 23.8904 26.9147 23.8904 25.9006C23.8904 25.2177 23.6509 24.9366 23.0821 24.9968C22.8725 25.0169 22.6929 25.027 22.6929 25.0169C22.6929 24.8261 23.4214 23.5408 23.6609 23.3099L23.9902 22.9986L23.9802 21.2012C23.9802 20.2071 23.9004 16.1202 23.8106 12.1137C23.611 3.84959 23.6709 4.29142 22.8526 4.29142C22.5432 4.29142 22.3736 4.35166 22.2339 4.50229Z" fill="white"/>
<path d="M36.903 4.50225C36.7334 4.69303 36.7134 4.91395 36.6835 6.80173L36.6436 8.88031L36.913 9.09118C37.2523 9.3623 37.6614 9.37234 37.9707 9.1213C38.2003 8.93052 38.2102 8.87027 38.2701 6.94231C38.34 4.87378 38.33 4.76332 38.0805 4.46208C37.861 4.21105 37.1525 4.23113 36.903 4.50225Z" fill="white"/>
<path d="M36.8229 11.1497C36.6134 11.3706 36.5934 11.4811 36.5336 13.1781C36.4936 14.1722 36.4338 16.7829 36.4038 18.972L36.334 22.9684L36.6733 23.2898C36.8629 23.4705 37.1622 23.9324 37.3418 24.314C37.5215 24.6855 37.6612 25.0069 37.6612 25.0169C37.6612 25.0269 37.4816 25.0169 37.272 24.9968C36.7032 24.9366 36.4637 25.2177 36.4637 25.9005C36.4637 27.0151 36.9028 29.1038 37.1822 29.3648C37.4117 29.5757 37.9805 29.5857 38.21 29.395C38.5393 29.1238 38.5692 28.8226 38.3597 27.9088C38.2599 27.4268 38.1402 26.7139 38.1002 26.3323L38.0404 25.6294L38.7289 26.6838C39.1081 27.2662 40.4852 29.3849 41.7924 31.4032C43.0996 33.4216 44.2772 35.1688 44.4069 35.2893C44.9058 35.7512 45.744 35.3997 45.744 34.747C45.744 34.5362 44.816 33.04 42.481 29.4452C40.6947 26.6838 39.0582 24.063 38.8387 23.6211C37.9905 21.8338 37.9506 21.3719 38.0903 15.116L38.1701 11.4208L37.9206 11.1698C37.6013 10.8484 37.1323 10.8384 36.8229 11.1497Z" fill="white"/>
<path d="M21.1163 30.9715C20.8169 31.2325 19.3999 33.9839 19.3999 34.3052C19.3999 34.8977 20.0186 35.2692 20.5574 34.9981C20.8768 34.8374 22.3936 32.0158 22.3936 31.5739C22.3936 30.9614 21.5753 30.5798 21.1163 30.9715Z" fill="white"/>
<path d="M38.2099 31.0518C38.0602 31.1924 37.9604 31.4133 37.9604 31.5739C37.9604 32.0158 39.4772 34.8374 39.7966 34.9981C40.3953 35.2993 41.0339 34.8374 40.9242 34.1847C40.8543 33.773 39.5072 31.2124 39.2377 30.9715C38.9484 30.7204 38.4993 30.7505 38.2099 31.0518Z" fill="white"/>
<path d="M8.42309 35.5202C8.17361 35.7713 8.07383 36.183 8.19357 36.4541C8.25344 36.5746 9.08169 37.3277 10.0496 38.131C11.0176 38.9343 11.8059 39.6171 11.8059 39.6573C11.8159 39.7075 11.7061 39.7376 11.5764 39.7376C11.307 39.7376 10.9178 40.1594 10.9178 40.4506C10.9178 40.7618 11.1274 41.1133 11.3868 41.2338C11.5664 41.3141 11.9356 41.3041 12.8836 41.1936C13.5722 41.1033 14.2208 40.9928 14.3206 40.9426C14.62 40.7819 14.6798 40.3501 14.59 39.0347C14.4902 37.5888 14.3605 37.3277 13.7119 37.3277C13.2828 37.3277 13.0233 37.5687 12.9235 38.0306L12.8637 38.3419L11.1772 36.926C10.2492 36.1428 9.41099 35.47 9.3112 35.4098C9.02182 35.2591 8.63264 35.3094 8.42309 35.5202Z" fill="white"/>
<path d="M51.0227 35.4198C50.9329 35.47 50.1047 36.1529 49.1766 36.9261L47.4902 38.3419L47.4303 38.0306C47.3305 37.5687 47.0711 37.3277 46.642 37.3277C45.9934 37.3277 45.8636 37.5888 45.7639 39.0348C45.674 40.3502 45.7339 40.782 46.0333 40.9426C46.1331 40.9928 46.7817 41.1033 47.4702 41.1937C48.4182 41.3041 48.7874 41.3142 48.9671 41.2338C49.2265 41.1133 49.4361 40.7619 49.4361 40.4506C49.4361 40.1594 49.0469 39.7377 48.7775 39.7377C48.6477 39.7377 48.538 39.7075 48.548 39.6573C48.548 39.6172 49.3363 38.9343 50.3042 38.131C51.2722 37.3277 52.1004 36.5746 52.1603 36.4541C52.4597 35.7914 51.6514 35.0483 51.0227 35.4198Z" fill="white"/>
<path d="M18.4116 36.2432C18.0624 36.434 16.6154 39.1652 16.6055 39.6573C16.6055 40.2999 17.2242 40.6514 17.8029 40.3401C18.0225 40.2196 19.5991 37.2473 19.5991 36.9461C19.5991 36.6649 19.2099 36.2432 18.9006 36.1729C18.7609 36.1428 18.5414 36.1729 18.4116 36.2432Z" fill="white"/>
<path d="M41.2933 36.2231C41.0238 36.3336 40.7544 36.7051 40.7544 36.9562C40.7544 37.2474 42.341 40.2297 42.5506 40.3401C42.8599 40.5008 43.3289 40.4606 43.5485 40.2397C43.9177 39.8682 43.8079 39.4464 42.9897 37.9C42.5805 37.1168 42.1814 36.424 42.1215 36.3537C41.9519 36.183 41.5327 36.1127 41.2933 36.2231Z" fill="white"/>
<path d="M15.4283 41.7258C15.1588 41.9969 13.7119 44.7985 13.7119 45.0395C13.7119 45.16 13.8217 45.3709 13.9514 45.5215C14.131 45.7424 14.2707 45.8026 14.5701 45.7926C15.0491 45.7826 15.109 45.7022 15.9971 44.0052C16.7654 42.5392 16.8652 42.1074 16.506 41.7459C16.2465 41.4848 15.6777 41.4748 15.4283 41.7258Z" fill="white"/>
<path d="M43.8479 41.7459C43.4786 42.1174 43.5784 42.5492 44.4067 44.0956C44.8158 44.8688 45.215 45.5717 45.2948 45.642C45.3646 45.7223 45.5842 45.7826 45.7937 45.7926C46.0831 45.8026 46.2228 45.7424 46.4024 45.5215C46.5322 45.3709 46.6419 45.16 46.6419 45.0395C46.6419 44.7885 45.205 42.007 44.9356 41.7359C44.6761 41.4748 44.1073 41.4848 43.8479 41.7459Z" fill="white"/>
<path d="M49.7851 42.9007C49.4858 43.1919 49.4758 43.3525 49.7252 44.2563C50.5734 47.3289 49.386 50.6828 46.7815 52.5505C46.2127 52.9622 44.9853 53.5948 44.7558 53.5948C44.7059 53.5948 44.6859 53.5044 44.7159 53.394C44.8356 52.9321 44.3766 52.3898 43.8677 52.3898C43.7679 52.3898 43.4585 52.5505 43.1592 52.7513C42.5504 53.163 41.7621 53.5345 41.2532 53.645C41.0636 53.6852 40.8141 53.8057 40.7044 53.9061C40.5048 54.0868 40.4748 54.0868 39.6067 53.9061C39.1077 53.8057 38.4691 53.6249 38.1897 53.5044C37.4812 53.2233 36.4933 52.7212 36.4234 52.6007C36.3636 52.5103 37.3415 51.6066 37.7207 51.4058C38.4891 51.0041 39.4869 51.0744 40.2952 51.5966C41.1235 52.1187 41.802 51.8878 41.802 51.0844C41.802 50.733 41.7422 50.6125 41.5027 50.4217C40.6345 49.7088 39.3173 49.3774 38.1897 49.5782C37.1519 49.759 36.5532 50.1305 34.9565 51.6066C32.6414 53.7454 32.0627 54.0366 30.1268 54.0366C28.1909 54.0366 27.6121 53.7454 25.297 51.6066C23.7004 50.1305 23.1017 49.759 22.0639 49.5782C20.5271 49.3071 18.5812 50.0703 18.4316 51.0041C18.3916 51.3053 18.4216 51.4158 18.6311 51.6267C18.9704 51.9681 19.3796 51.958 19.9483 51.5966C20.7866 51.0644 21.7545 50.9941 22.5329 51.4058C22.8322 51.5664 23.89 52.4902 23.89 52.6007C23.89 52.7011 22.962 53.1931 22.1637 53.5044C21.8842 53.6249 21.2456 53.8057 20.7467 53.9061C19.8785 54.0868 19.8486 54.0868 19.649 53.9061C19.5392 53.8057 19.2897 53.6852 19.1001 53.645C18.5912 53.5345 17.8029 53.163 17.1942 52.7513C16.8948 52.5505 16.5855 52.3898 16.4857 52.3898C15.9768 52.3898 15.5177 52.9321 15.6375 53.394C15.7073 53.655 15.6275 53.645 14.8492 53.2936C11.4563 51.7472 9.63022 47.8611 10.6181 44.2764C10.8676 43.3626 10.8676 43.2923 10.5682 43.0011C10.2489 42.6697 9.73998 42.6597 9.44062 42.981C9.02151 43.4228 8.79199 44.6378 8.79199 46.3148C8.79199 48.062 8.96163 48.8753 9.62024 50.2711C10.9674 53.1028 13.4022 54.9403 16.6354 55.5529C17.6831 55.7537 19.8386 55.7537 20.8963 55.5428C22.004 55.332 23.431 54.8098 24.4089 54.2575L25.1972 53.8057L25.7161 54.2073C27.8217 55.8842 30.9151 56.1955 33.34 54.9705C33.7192 54.7696 34.268 54.4282 34.5574 54.1872C35.0464 53.8057 35.1162 53.7755 35.3058 53.896C36.5132 54.6592 38.1198 55.2918 39.5269 55.5629C40.7443 55.7939 43.2689 55.7135 44.3666 55.4223C46.1628 54.9303 47.4501 54.2374 48.6575 53.1028C49.6055 52.2091 50.2042 51.3857 50.7231 50.261C51.7011 48.1724 51.8807 45.7424 51.2221 43.5935C51.1023 43.212 50.9427 42.9007 50.803 42.8003C50.4836 42.5794 50.0645 42.6095 49.7851 42.9007Z" fill="white"/>
<path d="M13.303 47.3591C13.0934 47.5298 13.0735 47.6202 13.0934 48.2929C13.1234 49.528 13.6522 51.215 14.1013 51.5564C14.5304 51.8878 15.3087 51.5162 15.3087 50.984C15.3087 50.8234 15.179 50.2912 15.0094 49.7991C14.8497 49.2971 14.71 48.6946 14.71 48.4536C14.71 47.8812 14.5404 47.3892 14.3109 47.2687C14.0115 47.108 13.5525 47.1482 13.303 47.3591Z" fill="white"/>
<path d="M46.0134 47.2888C45.7838 47.4695 45.6441 47.9114 45.6441 48.4436C45.6441 48.6946 45.5144 49.2971 45.3448 49.7991C45.1851 50.2912 45.0454 50.8234 45.0454 50.984C45.0454 51.5162 45.8238 51.8878 46.2528 51.5564C46.652 51.2552 47.0911 49.9799 47.2308 48.7247C47.3605 47.57 47.1609 47.1683 46.4724 47.1683C46.3127 47.1683 46.1032 47.2285 46.0134 47.2888Z" fill="white"/>
</svg>
