<svg width="32" height="32" viewBox="0 0 32 32" fill="none" xmlns="http://www.w3.org/2000/svg">
<path d="M7.67962 5.65355L9.95956 3.37361C10.3501 2.98309 10.9833 2.98309 11.3738 3.37361L15.2929 7.29273C15.6834 7.68325 15.6834 8.31642 15.2929 8.70694L12.6673 11.3325C12.2688 11.731 12.17 12.3398 12.422 12.8439C13.8791 15.7579 16.2419 18.1208 19.1559 19.5778C19.66 19.8298 20.2688 19.731 20.6673 19.3325L23.2929 16.7069C23.6834 16.3164 24.3166 16.3164 24.7071 16.7069L28.6262 20.6261C29.0168 21.0166 29.0168 21.6498 28.6262 22.0403L26.3463 24.3202C24.2349 26.4316 20.8924 26.6691 18.5037 24.8776L14.6286 21.9713C12.885 20.6636 11.3362 19.1148 10.0286 17.3713L7.12226 13.4962C5.33072 11.1075 5.56827 7.7649 7.67962 5.65355Z" fill="#B0A9F5"/>
</svg>
