<svg width="72" height="72" fill="none" xmlns="http://www.w3.org/2000/svg"><path fill-rule="evenodd" clip-rule="evenodd" d="M27.857 9h-9.84c-1.452 0-2.178 0-2.713.403-.535.404-.734 1.102-1.133 2.498l-4.05 14.173A.998.998 0 0110.5 26h14.17l3.187-17zM9.69 27.586l-.403 1.408c-.14.493-.211.74-.161.98.05.24.212.44.536.836L31.02 56.913 24.695 28H10.5a.999.999 0 01-.81-.414zM38.186 60.33l-.638.78c-.716.874-1.074 1.312-1.548 1.312s-.832-.438-1.548-1.313l-.638-.78L26.742 28h18.515l-7.071 32.328zm2.794-3.416L62.337 30.81c.325-.397.487-.595.537-.836.05-.24-.02-.487-.162-.98l-.402-1.408a.999.999 0 01-.81.414H47.305L40.98 56.913zm20.898-30.839l-4.05-14.173c-.398-1.396-.598-2.094-1.132-2.498C56.16 9 55.435 9 53.983 9h-9.84l3.187 17H61.5c.134 0 .261.026.378.074zM42.108 9H29.891l-3.187 17h18.59L42.107 9z" fill="#B0A9F5"/></svg>