<svg width="72" height="72" fill="none" xmlns="http://www.w3.org/2000/svg"><path fill-rule="evenodd" clip-rule="evenodd" d="M33.675 61.34l-17-12.144c-.821-.586-1.232-.88-1.453-1.31C15 47.456 15 46.95 15 45.94V26.058c0-.32 0-.591.007-.824L35 39.514v22.717c-.357-.2-.773-.498-1.325-.892zm3.325.89c.357-.2.773-.498 1.325-.892l17-12.143c.821-.586 1.232-.88 1.453-1.31.222-.43.222-.935.222-1.945V26.058c0-.32 0-.591-.007-.824L37 39.514v22.717zm19.128-38.837L36 37.771 15.872 23.394c.212-.168.474-.356.803-.59l17-12.143c1.123-.802 1.684-1.203 2.325-1.203.64 0 1.202.4 2.325 1.203l17 12.143c.328.234.591.422.803.59z" fill="#B0A9F5"/></svg>