<svg width="72" height="72" fill="none" xmlns="http://www.w3.org/2000/svg"><path d="M48 9v9M24 9v9" stroke="#B0A9F5" stroke-width="2" stroke-linecap="round"/><path fill-rule="evenodd" clip-rule="evenodd" d="M46 12H26v6a2 2 0 11-4 0v-5.972c-5.27.099-8.306.55-10.364 2.608C9 17.272 9 21.515 9 30v15c0 8.485 0 12.728 2.636 15.364C14.272 63 18.515 63 27 63h18c8.485 0 12.728 0 15.364-2.636C63 57.728 63 53.485 63 45V30c0-8.485 0-12.728-2.636-15.364-2.058-2.058-5.094-2.51-10.364-2.608V18a2 2 0 11-4 0v-6zM23 36a1 1 0 011-1h24a1 1 0 110 2H24a1 1 0 01-1-1zm1 11a1 1 0 100 2h24a1 1 0 100-2H24z" fill="#B0A9F5"/></svg>