<svg width="72" height="72" fill="none" xmlns="http://www.w3.org/2000/svg"><path fill-rule="evenodd" clip-rule="evenodd" d="M60 33c0-8.427 0-12.64-2.022-15.667a12 12 0 00-3.311-3.31C51.64 12 47.427 12 39 12h-6c-8.427 0-12.64 0-15.667 2.022a12 12 0 00-3.31 3.311C12 20.36 12 24.573 12 33s0 12.64 2.022 15.667a12 12 0 003.311 3.31c2.644 1.767 6.194 1.99 12.667 2.019V54l3.317 6.633c1.105 2.212 4.26 2.212 5.366 0L42 54v-.004c6.473-.028 10.023-.252 12.667-2.018a12 12 0 003.31-3.311C60 45.64 60 41.427 60 33zm-33-7a1 1 0 100 2h18a1 1 0 100-2H27zm0 12a1 1 0 100 2h9a1 1 0 100-2h-9z" fill="#B0A9F5"/></svg>