<svg width="80" height="80" fill="none" xmlns="http://www.w3.org/2000/svg"><path d="M78.586 21.052h-.071c-1.37.01-1.583-1.18-1.606-1.733v-8.641a1.67 1.67 0 00-1.668-1.67H50.535c-6.199 0-8.511 2.297-9.085 3.018l-.158.219-.001.004-.489.67c-.656.901-1.228.517-1.504.222l-.934-1.166-.463-.557c-.778-.817-2.804-2.41-6.82-2.41H4.76a1.67 1.67 0 00-1.67 1.67v8.53c0 1.495-.812 1.795-1.309 1.845h-.37c-.405.024-1.348.26-1.348 1.993v40.662c0 .997.81 1.805 1.807 1.805h24.022c7.664 0 11.004 2.89 12.005 3.998l.572.708s1.533 1.734 3.148 0l.335-.393.005-.002.428-.5a7.09 7.09 0 01.264-.283c1.278-1.243 4.474-3.528 10.724-3.528H78.13c.999 0 1.806-.808 1.806-1.806V22.653c0-1.47-1.064-1.592-1.35-1.6zm-5.397 36.276c0 .8-.67 1.447-1.502 1.447H51.32c-7.25 0-9.88 3.275-9.88 3.275l-.334.448-.156.216c-.692.939-1.71.007-1.714.002l-.469-.586c-.347-.418-3.01-3.356-9.454-3.356h-21c-.829 0-1.499-.648-1.499-1.448V14c0-.8.67-1.448 1.5-1.448h16.303c12.127 0 13.276 6.889 13.355 8.89v30.133c0 2.19 1.044 2.601 1.633 2.661h.876c.6-.06 1.553-.416 1.553-2.125V21.052h-.01c.09-2.506 1.068-8.502 8.362-8.502h21.302c.833 0 1.502.647 1.502 1.447v43.33z" fill="#fff"/></svg>