<svg width="24" height="24" fill="none" xmlns="http://www.w3.org/2000/svg"><path d="M15.684 0H8.316C1.594 0 0 1.594 0 8.316v7.367C0 22.407 1.594 24 8.316 24h7.367C22.407 24 24 22.406 24 15.684V8.316C24 1.594 22.39 0 15.684 0zm3.69 17.12h-1.741c-.66 0-.863-.523-2.05-1.726-1.032-1-1.489-1.132-1.743-1.132-.36 0-.461.1-.461.593v1.575c0 .422-.133.675-1.25.675-1.848 0-3.899-1.117-5.336-3.199C4.624 10.856 4.03 8.57 4.03 8.097c0-.254.101-.491.59-.491h1.746c.441 0 .61.203.781.675.863 2.492 2.301 4.676 2.894 4.676.22 0 .32-.102.32-.66V9.723c-.066-1.188-.691-1.29-.691-1.711 0-.203.168-.406.437-.406h2.746c.371 0 .508.203.508.64v3.472c0 .375.168.508.269.508.219 0 .406-.133.812-.54 1.254-1.405 2.153-3.573 2.153-3.573.116-.255.32-.492.762-.492h1.745c.524 0 .64.269.524.644-.22 1.015-2.356 4.03-2.356 4.03-.184.305-.254.438 0 .778.188.254.797.781 1.203 1.254.746.847 1.32 1.558 1.473 2.05.172.489-.082.743-.574.743h.002z" fill="#B0A9F5"/></svg>