<svg width="24" height="24" fill="none" xmlns="http://www.w3.org/2000/svg"><path d="M18.249 13.41c-.786 1.593-1.851 3.18-2.94 4.605A47.26 47.26 0 0112 21.87a47.226 47.226 0 01-3.309-3.855c-1.089-1.425-2.154-3.012-2.94-4.605C4.956 11.8 4.5 10.293 4.5 9a7.5 7.5 0 0115 0c0 1.293-.457 2.8-1.251 4.41zM12 24s9-8.529 9-15A9 9 0 103 9c0 6.471 9 15 9 15z" fill="#B0A9F5"/><path d="M18.249 13.41c-.786 1.593-1.851 3.18-2.94 4.605A47.26 47.26 0 0112 21.87a47.226 47.226 0 01-3.309-3.855c-1.089-1.425-2.154-3.012-2.94-4.605C4.956 11.8 4.5 10.293 4.5 9a7.5 7.5 0 0115 0c0 1.293-.457 2.8-1.251 4.41z" fill="#B0A9F5"/><path d="M12 12a3 3 0 110-6 3 3 0 010 6zm0 1.5a4.5 4.5 0 100-9 4.5 4.5 0 000 9z" fill="#fff"/></svg>