<svg width="24" height="24" fill="none" xmlns="http://www.w3.org/2000/svg"><g clip-path="url(#clip0_128_3215)"><path d="M9.868 7.773A2.14 2.14 0 0112 5.63a2.14 2.14 0 012.132 2.143A2.134 2.134 0 0112 9.905a2.138 2.138 0 01-2.132-2.132zM24 2.571V21.43A2.572 2.572 0 0121.429 24H2.57A2.572 2.572 0 010 21.429V2.57A2.572 2.572 0 012.571 0H21.43A2.572 2.572 0 0124 2.571zM7.655 7.773c0 2.39 1.95 4.334 4.345 4.334a4.342 4.342 0 004.345-4.334 4.344 4.344 0 10-8.69 0zm9.349 4.86c-.247-.488-.927-.9-1.827-.194 0 0-1.216.965-3.177.965-1.96 0-3.177-.965-3.177-.965-.9-.707-1.58-.294-1.827.193-.423.863.06 1.27 1.147 1.982.927.595 2.207.815 3.032.9l-.691.691c-.975.965-1.902 1.902-2.555 2.556-.943.943.573 2.453 1.521 1.532l2.555-2.566c.975.975 1.913 1.912 2.556 2.566.943.921 2.464-.573 1.532-1.532l-2.556-2.556-.696-.69c.83-.086 2.095-.317 3.01-.9 1.094-.713 1.57-1.126 1.153-1.983z" fill="#B0A9F5"/></g><defs><clipPath id="clip0_128_3215"><path fill="#fff" d="M0 0h24v24H0z"/></clipPath></defs></svg>