<svg width="80" height="80" fill="none" xmlns="http://www.w3.org/2000/svg"><path d="M60 0H20a7.498 7.498 0 00-7.5 7.5v65c0 4.145 3.357 7.5 7.5 7.5h40c4.14 0 7.5-3.36 7.5-7.5v-65A7.5 7.5 0 0060 0zm2.5 72.5c0 1.377-1.123 2.5-2.5 2.5H20a2.5 2.5 0 01-2.5-2.5v-5.01h45v5.01zm0-7.51h-45V15h45v49.99zm0-52.49h-45v-5A2.5 2.5 0 0120 5h40c1.377 0 2.5 1.12 2.5 2.5v5z" fill="#fff"/><path d="M45 8.75c0 .69-.563 1.25-1.25 1.25h-7.5C35.557 10 35 9.44 35 8.75c0-.693.557-1.25 1.25-1.25h7.5c.688 0 1.25.557 1.25 1.25zm-2.5 62.49c0 .688-.563 1.25-1.25 1.25h-2.5a1.249 1.249 0 110-2.5h2.5c.688 0 1.25.558 1.25 1.25z" fill="#fff"/></svg>