<svg width="32" height="32" fill="none" xmlns="http://www.w3.org/2000/svg"><path fill-rule="evenodd" clip-rule="evenodd" d="M4.879 7.545C4 8.424 4 9.838 4 12.666v6.667c0 2.829 0 4.243.879 5.122.878.878 2.293.878 5.121.878h12c2.828 0 4.243 0 5.121-.878.879-.88.879-2.293.879-5.122v-6.666c0-2.829 0-4.243-.879-5.122-.878-.878-2.293-.878-5.121-.878H10c-2.828 0-4.243 0-5.121.878zm3.676 3.623a1 1 0 10-1.11 1.664l7.446 4.963a2 2 0 002.218 0l7.446-4.963a1 1 0 00-1.11-1.664L16 16.13l-7.445-4.963z" fill="#fff"/></svg>