<svg width="32" height="32" fill="none" xmlns="http://www.w3.org/2000/svg"><g clip-path="url(#clip0_350_2193)"><path d="M13.157 10.364A2.853 2.853 0 0116 7.507a2.853 2.853 0 012.843 2.857A2.846 2.846 0 0116 13.207a2.85 2.85 0 01-2.843-2.843zM32 3.43v25.14A3.43 3.43 0 0128.571 32H3.43A3.43 3.43 0 010 28.571V3.43A3.43 3.43 0 013.429 0H28.57A3.43 3.43 0 0132 3.429zm-21.793 6.935c0 3.186 2.6 5.779 5.793 5.779s5.793-2.586 5.793-5.779a5.792 5.792 0 10-11.586 0zm12.464 6.479c-.328-.65-1.235-1.2-2.435-.257 0 0-1.622 1.285-4.236 1.285s-4.236-1.285-4.236-1.285c-1.2-.943-2.107-.393-2.435.257-.565 1.15.078 1.693 1.528 2.643 1.236.793 2.943 1.085 4.043 1.2l-.921.921c-1.3 1.286-2.536 2.536-3.408 3.407-1.257 1.257.765 3.272 2.029 2.043l3.407-3.421c1.3 1.3 2.55 2.55 3.407 3.421 1.257 1.229 3.286-.764 2.043-2.043l-3.407-3.407-.929-.921c1.108-.115 2.793-.422 4.015-1.2 1.457-.95 2.093-1.5 1.535-2.643z" fill="#fff"/></g><defs><clipPath id="clip0_350_2193"><path fill="#fff" d="M0 0h32v32H0z"/></clipPath></defs></svg>