<svg width="80" height="80" fill="none" xmlns="http://www.w3.org/2000/svg"><g clip-path="url(#clip0_128_3185)" fill="#fff"><path d="M71.667 0H8.333A8.333 8.333 0 000 8.333v63.334A8.333 8.333 0 008.333 80h63.334A8.335 8.335 0 0080 71.667V8.333A8.335 8.335 0 0071.667 0zM8.333 76.667a5 5 0 01-5-5v-4.234L30 40.767l35.983 35.9H8.333zm68.334-5a5 5 0 01-5 5h-.984l-23.1-23.1 12.65-12.65L76.667 57.35v14.317zm0-19.017L61.4 37.383a1.667 1.667 0 00-2.35 0L45.233 51.2 31.217 37.183a1.667 1.667 0 00-2.35 0L3.333 62.717V8.333a5 5 0 015-5h63.334a5 5 0 015 5V52.65z"/><path d="M41.667 11.667a10 10 0 100 19.999 10 10 0 000-20zm0 16.666a6.667 6.667 0 110-13.333 6.667 6.667 0 010 13.333z"/></g><defs><clipPath id="clip0_128_3185"><path fill="#fff" d="M0 0h80v80H0z"/></clipPath></defs></svg>