<svg width="80" height="80" fill="none" xmlns="http://www.w3.org/2000/svg"><g clip-path="url(#clip0_139_3724)" stroke="#fff" stroke-width="3" stroke-linecap="round" stroke-linejoin="round"><path d="M41.413 1.813l4.907 3.76c.44.343.99.514 1.546.48l6.267-.293a2.293 2.293 0 012.32 1.6l1.627 5.813c.158.513.5.95.96 1.227l5.333 3.307a2.053 2.053 0 01.853 2.666l-2.293 5.52a2.214 2.214 0 000 1.547l2.24 5.627a2.053 2.053 0 01-.853 2.666l-5.334 3.307c-.46.277-.801.714-.96 1.227L56.4 46.08a2.293 2.293 0 01-2.32 1.6l-6.08-.4a2.293 2.293 0 00-1.547.48l-4.907 3.76a2.32 2.32 0 01-2.826 0l-4.907-3.76a2.293 2.293 0 00-1.547-.48L26 47.573a2.293 2.293 0 01-2.32-1.6l-1.627-5.813c-.159-.513-.5-.95-.96-1.227l-5.333-3.306a2.054 2.054 0 01-.88-2.667l2.24-5.627a2.213 2.213 0 000-1.546l-2.294-5.52a2.053 2.053 0 01.88-2.667l5.334-3.307c.46-.277.801-.713.96-1.226l1.626-5.814a2.294 2.294 0 012.32-1.6l6.267.294a2.293 2.293 0 001.547-.48l4.826-3.654a2.32 2.32 0 012.827 0z"/><path d="M40 38.667c6.627 0 12-5.373 12-12 0-6.628-5.373-12-12-12s-12 5.372-12 12c0 6.627 5.373 12 12 12zM78.666 68L58.133 40m20.534 28L60 65.333m-8 13.334l8-13.334m-8 13.334L45.227 48.8M1.333 68l20.533-28M1.333 68L20 65.333m8 13.334l-8-13.334m8 13.334L34.773 48.8"/></g><defs><clipPath id="clip0_139_3724"><path fill="#fff" d="M0 0h80v80H0z"/></clipPath></defs></svg>