<svg width="296" height="23" fill="none" xmlns="http://www.w3.org/2000/svg"><path d="M.46 22V.79h3.48v9.27h2.7L13.18.79h4.02L9.64 11.08 17.29 22h-4.08l-6.24-8.85H3.94V22H.46zM168.624.79h14.73v3.12h-11.25v6.03h9.96v3.15h-9.96v5.82h11.25V22h-14.73V.79z" fill="#7064FB"/><path d="M34.28 22l-1.56-4.29h-9.63L21.5 22h-3.78L25.76.79h4.32L38.09 22h-3.81zm-2.64-7.41L27.92 4.21l-3.75 10.38h7.47zm8.114-10.68V.79h15.75v2.73l-11.7 15.39h11.49V22h-15.87v-2.76l11.64-15.33h-11.31zM73.392 22l-1.56-4.29h-9.63L60.612 22h-3.78L64.872.79h4.32L77.202 22h-3.81zm-2.64-7.41l-3.72-10.38-3.75 10.38h7.47zM79.825 22V.79h3.75l10.56 15.93V.79h3.45V22h-3.72L83.245 6.13V22h-3.42zm31.496-18.36c-1.12 0-2.09.21-2.91.63-.8.42-1.46.98-1.98 1.68s-.91 1.52-1.17 2.46c-.24.92-.36 1.89-.36 2.91 0 1.04.13 2.03.39 2.97.26.94.65 1.77 1.17 2.49.54.7 1.22 1.26 2.04 1.68.82.42 1.79.63 2.91.63 1.38 0 2.53-.3 3.45-.9.94-.6 1.53-1.41 1.77-2.43h3.48c-.16 1.02-.5 1.93-1.02 2.73-.5.8-1.13 1.48-1.89 2.04-.76.54-1.64.96-2.64 1.26-1 .28-2.07.42-3.21.42-1.66 0-3.12-.27-4.38-.81-1.24-.54-2.28-1.29-3.12-2.25-.84-.96-1.47-2.1-1.89-3.42-.42-1.32-.63-2.77-.63-4.35 0-1.54.21-2.97.63-4.29.44-1.34 1.08-2.49 1.92-3.45.84-.98 1.88-1.74 3.12-2.28 1.26-.56 2.72-.84 4.38-.84 2.34 0 4.27.55 5.79 1.65 1.52 1.1 2.44 2.72 2.76 4.86h-3.42c-.26-1.04-.84-1.86-1.74-2.46-.9-.62-2.05-.93-3.45-.93zM123.683.79h14.73v3.12h-11.25v6.03h9.96v3.15h-9.96v5.82h11.25V22h-14.73V.79zm20.136 0l6.33 17.49 6.3-17.49h3.75L152.219 22h-4.23L139.979.79h3.84zm44.941 0l6.33 17.49 6.3-17.49h3.75L197.16 22h-4.23L184.92.79h3.84zm27.09 2.85c-1.12.02-2.08.24-2.88.66-.8.42-1.46.98-1.98 1.68-.5.7-.87 1.52-1.11 2.46-.24.92-.36 1.9-.36 2.94s.12 2.03.36 2.97c.26.92.65 1.74 1.17 2.46.54.7 1.22 1.26 2.04 1.68.82.4 1.79.6 2.91.6 1.82 0 3.23-.47 4.23-1.41 1.02-.96 1.55-2.2 1.59-3.72h-6.21v-2.94h9.54c0 .76-.02 1.53-.06 2.31-.02.76-.13 1.56-.33 2.4-.24.9-.59 1.75-1.05 2.55-.46.78-1.05 1.46-1.77 2.04-.72.58-1.58 1.04-2.58 1.38-.98.34-2.11.51-3.39.51-1.66 0-3.12-.26-4.38-.78-1.24-.54-2.28-1.29-3.12-2.25-.84-.96-1.47-2.1-1.89-3.42-.42-1.32-.63-2.76-.63-4.32 0-1.58.21-3.04.63-4.38.42-1.34 1.04-2.49 1.86-3.45.84-.98 1.88-1.74 3.12-2.28 1.26-.54 2.72-.81 4.38-.81 1.16 0 2.23.15 3.21.45 1 .28 1.88.7 2.64 1.26.76.54 1.39 1.22 1.89 2.04.5.8.83 1.72.99 2.76h-3.51c-.26-1.06-.87-1.89-1.83-2.49-.94-.6-2.1-.9-3.48-.9zM228.888.79h14.73v3.12h-11.25v6.03h9.96v3.15h-9.96v5.82h11.25V22h-14.73V.79zM247.374 22V.79h3.75l10.56 15.93V.79h3.45V22h-3.72l-10.62-15.87V22h-3.42zm26.156 0h-3.48V.79h3.48V22zM291.208.79h3.93l-7.65 13.26V22h-3.48v-7.92L276.268.79h4.02l5.49 9.9 5.43-9.9z" fill="#232323"/></svg>