<svg width="60" height="60" fill="none" xmlns="http://www.w3.org/2000/svg"><path d="M22.234 4.502c-.22.241-.22-.04.01 9.891.14 6.216.13 6.708-.26 8.023-.339 1.135-.718 1.788-4.12 7.04-3.444 5.301-3.474 5.361-3.064 5.874.26.32.828.32 1.147-.01.13-.141 1.307-1.898 2.615-3.917 1.307-2.018 2.684-4.137 3.063-4.72l.689-1.054-.06.693a19.18 19.18 0 01-.27 1.637c-.2.884-.2.954-.04 1.195.3.462.948.542 1.278.16.25-.3.668-2.4.668-3.413 0-.683-.24-.964-.808-.904-.21.02-.39.03-.39.02 0-.19.73-1.476.969-1.707l.33-.311-.01-1.798c0-.994-.08-5.08-.17-9.087-.2-8.264-.14-7.823-.958-7.823-.31 0-.48.06-.62.211zm14.669 0c-.17.191-.19.412-.22 2.3l-.04 2.078.27.211c.34.271.748.281 1.058.03.23-.19.24-.25.3-2.179.069-2.068.059-2.179-.19-2.48-.22-.25-.928-.23-1.178.04zm-.08 6.648c-.21.22-.23.331-.29 2.028-.04.994-.1 3.605-.13 5.794l-.069 3.996.34.322c.189.18.488.642.668 1.024.18.372.32.693.32.703 0 .01-.18 0-.39-.02-.569-.06-.808.22-.808.904 0 1.114.439 3.203.718 3.464.23.21.798.22 1.028.03.33-.271.36-.572.15-1.486a19.79 19.79 0 01-.26-1.577l-.06-.703.689 1.055c.38.582 1.756 2.7 3.063 4.72 1.308 2.018 2.485 3.765 2.615 3.885.499.462 1.337.11 1.337-.542 0-.21-.928-1.707-3.263-5.302-1.786-2.761-3.423-5.382-3.642-5.824-.849-1.787-.888-2.25-.749-8.505l.08-3.695-.25-.251c-.319-.322-.788-.332-1.097-.02z" fill="#fff"/><path d="M21.116 30.971c-.3.262-1.716 3.013-1.716 3.334 0 .593.619.964 1.157.693.32-.16 1.837-2.982 1.837-3.424 0-.613-.819-.994-1.278-.603zm17.094.081c-.15.14-.25.361-.25.522 0 .442 1.517 3.263 1.837 3.424.598.301 1.237-.16 1.127-.813-.07-.412-1.417-2.973-1.686-3.214-.29-.25-.739-.22-1.028.08zM8.423 35.52c-.25.251-.35.663-.23.934.06.12.889.874 1.857 1.677s1.756 1.486 1.756 1.526c.01.05-.1.08-.23.08-.269 0-.658.422-.658.714 0 .31.21.662.469.783.18.08.549.07 1.497-.04.688-.09 1.337-.201 1.437-.251.299-.161.359-.593.269-1.908-.1-1.446-.23-1.707-.878-1.707-.43 0-.689.24-.788.703l-.06.31-1.687-1.415c-.928-.783-1.766-1.456-1.866-1.516-.29-.15-.678-.1-.888.11zm42.6-.1c-.09.05-.918.733-1.846 1.506l-1.687 1.416-.06-.311c-.1-.462-.359-.703-.788-.703-.649 0-.778.26-.878 1.707-.09 1.315-.03 1.747.27 1.908.1.05.748.16 1.436.25.948.111 1.317.121 1.497.04.26-.12.47-.471.47-.782 0-.292-.39-.713-.66-.713-.13 0-.239-.03-.229-.08 0-.04.788-.724 1.756-1.527.968-.803 1.796-1.556 1.856-1.677.3-.663-.509-1.406-1.137-1.034zm-32.611.823c-.35.191-1.797 2.922-1.806 3.414 0 .643.618.994 1.197.683.22-.12 1.796-3.093 1.796-3.394 0-.281-.39-.703-.698-.773-.14-.03-.36 0-.49.07zm22.881-.02c-.27.11-.539.482-.539.733 0 .291 1.587 3.274 1.797 3.384.309.16.778.12.997-.1.37-.372.26-.794-.558-2.34-.41-.783-.809-1.476-.869-1.546-.17-.171-.588-.241-.828-.13zm-25.865 5.503c-.27.27-1.716 3.072-1.716 3.313 0 .121.11.332.24.483.179.22.319.28.618.27.48-.01.539-.09 1.427-1.787.768-1.466.868-1.898.509-2.26-.26-.26-.828-.27-1.078-.02zm28.42.02c-.37.371-.27.803.559 2.35.409.773.808 1.476.888 1.546.07.08.29.14.499.15.29.01.429-.05.608-.27.13-.151.24-.362.24-.483 0-.25-1.437-3.032-1.706-3.303-.26-.261-.829-.251-1.088.01z" fill="#fff"/><path d="M49.785 42.9c-.3.292-.31.453-.06 1.356.848 3.073-.339 6.427-2.944 8.294-.568.412-1.796 1.045-2.025 1.045-.05 0-.07-.09-.04-.201.12-.462-.34-1.004-.848-1.004-.1 0-.41.16-.709.361-.609.412-1.397.784-1.906.894a1.4 1.4 0 00-.549.261c-.2.18-.23.18-1.097 0-.5-.1-1.138-.281-1.417-.402-.709-.28-1.697-.783-1.767-.903-.06-.09.919-.994 1.298-1.195.768-.402 1.766-.332 2.574.19.828.523 1.507.292 1.507-.512 0-.351-.06-.472-.3-.662-.867-.713-2.185-1.045-3.312-.844-1.038.181-1.637.552-3.233 2.029-2.316 2.138-2.894 2.43-4.83 2.43s-2.515-.292-4.83-2.43c-1.597-1.477-2.195-1.848-3.233-2.029-1.537-.27-3.483.492-3.632 1.426-.04.301-.01.412.2.623.338.341.748.331 1.316-.03.839-.533 1.806-.603 2.585-.191.3.16 1.357 1.084 1.357 1.195 0 .1-.928.592-1.726.903-.28.12-.918.302-1.417.402-.869.18-.898.18-1.098 0-.11-.1-.36-.22-.549-.261-.509-.11-1.297-.482-1.906-.894-.3-.2-.608-.361-.708-.361-.51 0-.968.542-.849 1.004.07.261-.01.251-.788-.1-3.393-1.547-5.219-5.433-4.23-9.018.249-.913.249-.984-.05-1.275-.32-.331-.829-.341-1.128-.02-.42.442-.649 1.657-.649 3.334 0 1.747.17 2.56.828 3.956 1.347 2.832 3.782 4.67 7.015 5.282 1.048.2 3.204.2 4.261-.01 1.108-.211 2.535-.733 3.513-1.285l.788-.452.52.401c2.105 1.677 5.198 1.989 7.623.764.38-.201.928-.543 1.217-.784.49-.381.56-.411.749-.291 1.207.763 2.814 1.396 4.22 1.667 1.218.23 3.743.15 4.84-.14 1.797-.493 3.084-1.186 4.291-2.32.949-.894 1.547-1.717 2.066-2.842.978-2.089 1.158-4.519.5-6.668-.12-.381-.28-.692-.42-.793a.775.775 0 00-1.018.1z" fill="#fff"/><path d="M13.303 47.36c-.21.17-.23.26-.21.933.03 1.235.56 2.922 1.008 3.263.43.332 1.208-.04 1.208-.572 0-.16-.13-.693-.3-1.185-.16-.502-.299-1.104-.299-1.345 0-.573-.17-1.065-.4-1.185-.299-.161-.758-.12-1.007.09zm32.71-.071c-.23.18-.369.622-.369 1.155 0 .25-.13.853-.3 1.355-.159.492-.299 1.024-.299 1.185 0 .532.779.904 1.208.572.399-.3.838-1.576.978-2.831.13-1.155-.07-1.557-.759-1.557-.16 0-.369.06-.459.12z" fill="#fff"/></svg>