<svg width="80" height="80" fill="none" xmlns="http://www.w3.org/2000/svg"><path d="M29.645 6.003c-.293.321-.293-.054.013 13.188.186 8.287.173 8.943-.346 10.697-.452 1.513-.958 2.383-5.495 9.386-4.59 7.069-4.63 7.15-4.084 7.832.345.428 1.104.428 1.53-.013.173-.188 1.743-2.53 3.486-5.222 1.743-2.691 3.579-5.516 4.084-6.293l.918-1.405-.08.923c-.053.51-.212 1.5-.359 2.183-.266 1.178-.266 1.272-.053 1.593.4.616 1.264.723 1.703.214.333-.401.892-3.2.892-4.552 0-.91-.32-1.285-1.078-1.205-.28.027-.52.04-.52.027 0-.255.972-1.968 1.291-2.276l.44-.415-.014-2.397c0-1.325-.106-6.774-.226-12.116-.266-11.02-.186-10.43-1.277-10.43-.413 0-.639.08-.825.281zm19.559 0c-.227.254-.253.549-.293 3.066l-.053 2.771.359.282c.452.361.998.374 1.41.04.306-.255.32-.335.4-2.906.093-2.758.08-2.905-.253-3.307-.293-.334-1.238-.308-1.57.054zm-.107 8.863c-.28.295-.306.442-.386 2.705-.053 1.325-.133 4.806-.173 7.725l-.093 5.329.452.428c.253.241.652.857.892 1.366.24.495.425.923.425.937 0 .013-.24 0-.518-.027-.759-.08-1.078.295-1.078 1.205 0 1.486.585 4.271.958 4.62.306.28 1.064.294 1.37.04.44-.362.48-.764.2-1.982a26.476 26.476 0 01-.346-2.102l-.08-.938.918 1.406c.506.777 2.342 3.602 4.085 6.293 1.743 2.691 3.313 5.02 3.486 5.181.665.616 1.783.148 1.783-.723 0-.28-1.238-2.276-4.351-7.069-2.382-3.682-4.564-7.176-4.857-7.765-1.13-2.383-1.184-3-.998-11.34l.107-4.927-.333-.335c-.425-.428-1.05-.442-1.463-.027z" fill="#fff"/><path d="M28.155 41.295c-.4.348-2.289 4.017-2.289 4.445 0 .79.825 1.286 1.544.924.425-.214 2.448-3.976 2.448-4.565 0-.817-1.091-1.326-1.703-.804zm22.791.107c-.2.188-.332.482-.332.697 0 .589 2.022 4.35 2.448 4.565.798.402 1.65-.214 1.503-1.084-.093-.55-1.889-3.963-2.248-4.285-.386-.334-.985-.294-1.37.107zM11.23 47.36c-.332.335-.465.884-.306 1.245.08.161 1.185 1.165 2.475 2.236 1.29 1.071 2.342 1.982 2.342 2.035.013.067-.133.108-.306.108-.36 0-.878.562-.878.95 0 .415.28.884.625 1.044.24.108.732.094 1.996-.053.918-.12 1.783-.268 1.916-.335.399-.214.479-.79.36-2.544-.134-1.928-.307-2.276-1.172-2.276-.572 0-.918.322-1.05.937l-.08.416-2.25-1.888c-1.237-1.045-2.354-1.942-2.487-2.022-.386-.2-.905-.134-1.184.147zm56.8-.134c-.12.067-1.224.978-2.462 2.009l-2.248 1.888-.08-.415c-.133-.616-.479-.938-1.051-.938-.865 0-1.038.348-1.17 2.276-.12 1.754-.04 2.33.358 2.544.133.067.998.214 1.916.335 1.264.147 1.756.16 1.996.053.346-.16.625-.629.625-1.044 0-.388-.519-.95-.878-.95-.173 0-.32-.04-.306-.108 0-.053 1.051-.964 2.342-2.035 1.29-1.07 2.395-2.075 2.475-2.236.399-.883-.679-1.874-1.517-1.379zm-43.481 1.098c-.466.255-2.395 3.896-2.408 4.552 0 .857.825 1.326 1.596.91.293-.16 2.395-4.123 2.395-4.525 0-.374-.519-.937-.931-1.03-.186-.04-.48 0-.652.093zm30.509-.027c-.36.148-.719.643-.719.978 0 .388 2.116 4.364 2.395 4.512.413.214 1.038.16 1.33-.134.493-.495.347-1.058-.744-3.12-.546-1.044-1.078-1.968-1.158-2.062-.226-.227-.785-.32-1.104-.173zM20.57 55.634c-.358.362-2.288 4.097-2.288 4.419 0 .16.147.442.32.642.239.295.425.375.825.362.638-.014.718-.12 1.902-2.383 1.025-1.955 1.158-2.53.679-3.013-.346-.348-1.105-.361-1.437-.027zm37.894.027c-.492.496-.36 1.071.745 3.133.545 1.031 1.078 1.968 1.184 2.062.093.107.386.187.665.2.386.014.572-.066.812-.36.173-.201.32-.483.32-.643 0-.335-1.917-4.044-2.276-4.405-.346-.348-1.104-.335-1.45.013z" fill="#fff"/><path d="M66.38 57.2c-.399.39-.412.603-.08 1.808 1.131 4.097-.452 8.569-3.925 11.06-.758.548-2.395 1.392-2.7 1.392-.067 0-.094-.12-.054-.268.16-.616-.452-1.339-1.13-1.339-.134 0-.546.214-.946.482-.811.549-1.862 1.044-2.54 1.192-.254.053-.586.214-.733.348-.266.24-.305.24-1.463 0-.665-.134-1.517-.375-1.89-.536-.944-.375-2.261-1.044-2.354-1.205-.08-.12 1.224-1.325 1.73-1.593 1.024-.535 2.354-.442 3.432.254 1.104.697 2.009.389 2.009-.682 0-.469-.08-.63-.4-.884-1.157-.95-2.913-1.392-4.416-1.125-1.384.241-2.183.737-4.311 2.705-3.087 2.852-3.859 3.24-6.44 3.24-2.581 0-3.353-.389-6.44-3.24-2.128-1.968-2.927-2.464-4.31-2.705-2.05-.361-4.644.656-4.844 1.901-.053.402-.013.55.267.83.452.456.997.442 1.756-.04 1.117-.71 2.408-.803 3.446-.254.399.214 1.81 1.446 1.81 1.593 0 .134-1.238.79-2.302 1.205-.373.16-1.224.402-1.89.536-1.157.24-1.197.24-1.463 0-.147-.134-.48-.295-.732-.348-.679-.148-1.73-.643-2.541-1.192-.4-.268-.812-.482-.945-.482-.679 0-1.29.723-1.131 1.339.093.348-.013.335-1.051-.134-4.524-2.062-6.959-7.243-5.641-12.023.332-1.218.332-1.312-.067-1.7-.426-.442-1.104-.455-1.503-.027-.56.59-.865 2.21-.865 4.445 0 2.33.226 3.414 1.104 5.275 1.796 3.776 5.043 6.226 9.353 7.042 1.398.268 4.271.268 5.682-.013 1.477-.281 3.38-.977 4.683-1.714l1.051-.602.692.535c2.808 2.236 6.932 2.651 10.165 1.018.506-.268 1.238-.723 1.623-1.044.652-.51.746-.55.998-.389 1.61 1.018 3.753 1.861 5.629 2.223 1.623.308 4.989.2 6.453-.188 2.394-.656 4.11-1.58 5.72-3.092 1.265-1.192 2.063-2.29 2.755-3.79 1.304-2.784 1.543-6.024.665-8.89-.16-.508-.373-.923-.559-1.057a1.034 1.034 0 00-1.357.134z" fill="#fff"/><path d="M17.737 63.145c-.28.228-.306.348-.28 1.246.04 1.646.745 3.896 1.344 4.35.572.443 1.61-.053 1.61-.762 0-.215-.173-.924-.4-1.58-.212-.67-.398-1.473-.398-1.794 0-.763-.226-1.42-.532-1.58-.4-.214-1.012-.16-1.344.12zm43.613-.093c-.305.24-.491.83-.491 1.54 0 .334-.173 1.137-.4 1.807-.212.656-.399 1.365-.399 1.58 0 .71 1.038 1.205 1.61.763.532-.402 1.118-2.102 1.304-3.776.173-1.54-.093-2.075-1.011-2.075-.213 0-.492.08-.612.16z" fill="#fff"/></svg>