<svg width="32" height="32" fill="none" xmlns="http://www.w3.org/2000/svg"><path fill-rule="evenodd" clip-rule="evenodd" d="M18.848 4.482c.165 1.653.248 2.48.8 2.708.554.23 1.197-.297 2.482-1.349.674-.55 1.01-.826 1.395-.807.385.02.689.324 1.297.932l1.212 1.212c.608.608.912.912.931 1.297.02.385-.256.721-.807 1.394-1.052 1.286-1.578 1.929-1.349 2.482.23.553 1.056.635 2.709.8.865.087 1.298.13 1.557.416.258.286.258.716.258 1.576v1.713c0 .86 0 1.29-.258 1.576-.259.286-.692.33-1.557.416-1.653.165-2.48.248-2.708.8-.23.554.297 1.196 1.349 2.482.55.673.826 1.01.806 1.394-.019.385-.323.69-.931 1.298l-1.212 1.211c-.608.608-.912.912-1.297.932-.385.019-.721-.256-1.395-.807-1.285-1.052-1.928-1.578-2.481-1.35-.553.23-.636 1.056-.801 2.71-.086.865-.13 1.298-.415 1.557-.286.258-.716.258-1.576.258h-1.714c-.86 0-1.29 0-1.576-.258-.286-.259-.329-.692-.415-1.557-.166-1.653-.248-2.48-.801-2.709-.553-.229-1.196.297-2.482 1.35-.673.55-1.01.826-1.394.806-.385-.019-.69-.323-1.298-.931l-1.211-1.212c-.608-.608-.912-.912-.932-1.297-.019-.385.257-.721.807-1.395 1.052-1.285 1.578-1.928 1.35-2.481-.23-.553-1.056-.636-2.71-.801-.865-.086-1.297-.13-1.556-.415-.258-.286-.258-.716-.258-1.576v-1.714c0-.86 0-1.29.258-1.576.259-.286.691-.329 1.557-.415 1.653-.166 2.48-.248 2.709-.801.229-.553-.297-1.196-1.35-2.482-.55-.673-.826-1.01-.807-1.395.02-.385.324-.689.932-1.297l1.212-1.212c.608-.608.912-.912 1.297-.931.385-.02.721.256 1.394.807 1.286 1.052 1.93 1.578 2.482 1.349.553-.23.635-1.056.8-2.708.087-.866.13-1.298.416-1.557.286-.258.716-.258 1.576-.258h1.713c.86 0 1.29 0 1.576.258.286.259.33.691.416 1.557zM16 21.333a5.333 5.333 0 100-10.666 5.333 5.333 0 000 10.666z" fill="#B0A9F5"/></svg>