<svg viewBox="0 0 298 60" xmlns="http://www.w3.org/2000/svg" xmlns:xlink="http://www.w3.org/1999/xlink"><style>:root&gt;svg{display:none}:root&gt;svg:target{display:block}</style><svg fill="none" viewBox="0 0 32 32" id="sprite--FIO" xmlns="http://www.w3.org/2000/svg"><circle cx="16" cy="13.334" fill="#B0A9F5" r="4"/><circle cx="16" cy="16" r="12" stroke="#B0A9F5" stroke-width="1.2"/><path d="M23.83 25.078a.303.303 0 00.097-.343c-.501-1.333-1.51-2.508-2.885-3.357C19.595 20.484 17.823 20 16 20s-3.595.484-5.042 1.378c-1.376.85-2.384 2.024-2.885 3.357a.303.303 0 00.098.343 12.542 12.542 0 0015.658 0z" fill="#B0A9F5" stroke="#B0A9F5" stroke-width="1.2" stroke-linecap="round"/></svg><svg fill="none" viewBox="0 0 12 7" id="sprite--arrow" xmlns="http://www.w3.org/2000/svg"><path d="M1 1l5 5 5-5" stroke="#232323" stroke-width="2" stroke-linecap="round" stroke-linejoin="round"/></svg><svg fill="none" viewBox="0 0 18 14" id="sprite--button-menu" xmlns="http://www.w3.org/2000/svg"><rect width="18" height="2" rx="1" fill="#796CF9"/><rect y="6" width="18" height="2" rx="1" fill="#796CF9"/><rect y="12" width="18" height="2" rx="1" fill="#796CF9"/></svg><svg fill="none" viewBox="0 0 32 32" id="sprite--comment" xmlns="http://www.w3.org/2000/svg"><path d="M5.333 16c0-1.548 0-2.322.096-2.97a9 9 0 017.6-7.601c.649-.096 1.423-.096 2.971-.096v0c1.548 0 2.323 0 2.971.096a9 9 0 017.6 7.6c.096.649.096 1.423.096 2.971v6.788c0 1.768 0 2.652-.52 3.224a1.987 1.987 0 01-.135.135c-.572.52-1.456.52-3.224.52H16c-1.548 0-2.322 0-2.97-.095a9 9 0 01-7.601-7.6c-.096-.65-.096-1.424-.096-2.972v0z" stroke="#B0A9F5" stroke-width="2"/><path d="M12 14.666h8M16 20h4" stroke="#B0A9F5" stroke-width="2" stroke-linecap="round" stroke-linejoin="round"/></svg><svg fill="none" viewBox="0 0 32 32" id="sprite--email" xmlns="http://www.w3.org/2000/svg"><path fill-rule="evenodd" clip-rule="evenodd" d="M17.331 9.335L20 6.667c1.177-1.177 1.765-1.765 2.487-1.83a2 2 0 01.359 0c.722.065 1.31.653 2.487 1.83s1.765 1.765 1.83 2.487c.011.12.011.24 0 .359-.065.722-.653 1.31-1.83 2.487l-2.639 2.64a14.867 14.867 0 01-5.363-5.305zm-1.454 1.455L6.19 20.477c-.425.425-.637.638-.777.899-.14.26-.199.556-.316 1.145l-.95 4.744c-.066.332-.099.499-.004.593.094.095.26.062.593-.005l4.744-.949c.59-.117.884-.177 1.145-.316.261-.14.474-.353.899-.777l9.713-9.714a16.87 16.87 0 01-5.359-5.307z" fill="#B0A9F5"/></svg><svg fill="none" viewBox="0 0 32 32" id="sprite--footer-email" xmlns="http://www.w3.org/2000/svg"><path fill-rule="evenodd" clip-rule="evenodd" d="M4.879 7.545C4 8.424 4 9.838 4 12.666v6.667c0 2.829 0 4.243.879 5.122.878.878 2.293.878 5.121.878h12c2.828 0 4.243 0 5.121-.878.879-.88.879-2.293.879-5.122v-6.666c0-2.829 0-4.243-.879-5.122-.878-.878-2.293-.878-5.121-.878H10c-2.828 0-4.243 0-5.121.878zm3.676 3.623a1 1 0 10-1.11 1.664l7.446 4.963a2 2 0 002.218 0l7.446-4.963a1 1 0 00-1.11-1.664L16 16.13l-7.445-4.963z" fill="#fff"/></svg><svg fill="none" viewBox="0 0 298 38" id="sprite--footer-logo" xmlns="http://www.w3.org/2000/svg"><path d="M2.46 29V7.79h3.48v9.27h2.7l6.54-9.27h4.02l-7.56 10.29L19.29 29h-4.08l-6.24-8.85H5.94V29H2.46zM170.624 7.79h14.73v3.12h-11.25v6.03h9.96v3.15h-9.96v5.82h11.25V29h-14.73V7.79z" fill="#fff"/><path d="M36.28 29l-1.56-4.29h-9.63L23.5 29h-3.78l8.04-21.21h4.32L40.09 29h-3.81zm-2.64-7.41l-3.72-10.38-3.75 10.38h7.47zm8.114-10.68V7.79h15.75v2.73l-11.7 15.39h11.49V29h-15.87v-2.76l11.64-15.33h-11.31zM75.392 29l-1.56-4.29h-9.63L62.612 29h-3.78l8.04-21.21h4.32L79.202 29h-3.81zm-2.64-7.41l-3.72-10.38-3.75 10.38h7.47zM81.826 29V7.79h3.75l10.56 15.93V7.79h3.45V29h-3.72l-10.62-15.87V29h-3.42zm31.495-18.36c-1.12 0-2.09.21-2.91.63-.8.42-1.46.98-1.98 1.68s-.91 1.52-1.17 2.46c-.24.92-.36 1.89-.36 2.91 0 1.04.13 2.03.39 2.97.26.94.65 1.77 1.17 2.49.54.7 1.22 1.26 2.04 1.68.82.42 1.79.63 2.91.63 1.38 0 2.53-.3 3.45-.9.94-.6 1.53-1.41 1.77-2.43h3.48c-.16 1.02-.5 1.93-1.02 2.73-.5.8-1.13 1.48-1.89 2.04-.76.54-1.64.96-2.64 1.26-1 .28-2.07.42-3.21.42-1.66 0-3.12-.27-4.38-.81-1.24-.54-2.28-1.29-3.12-2.25-.84-.96-1.47-2.1-1.89-3.42-.42-1.32-.63-2.77-.63-4.35 0-1.54.21-2.97.63-4.29.44-1.34 1.08-2.49 1.92-3.45.84-.98 1.88-1.74 3.12-2.28 1.26-.56 2.72-.84 4.38-.84 2.34 0 4.27.55 5.79 1.65 1.52 1.1 2.44 2.72 2.76 4.86h-3.42c-.26-1.04-.84-1.86-1.74-2.46-.9-.62-2.05-.93-3.45-.93zm12.362-2.85h14.73v3.12h-11.25v6.03h9.96v3.15h-9.96v5.82h11.25V29h-14.73V7.79zm20.136 0l6.33 17.49 6.3-17.49h3.75L154.219 29h-4.23l-8.01-21.21h3.84zm44.941 0l6.33 17.49 6.3-17.49h3.75L199.16 29h-4.23l-8.01-21.21h3.84zm27.09 2.85c-1.12.02-2.08.24-2.88.66-.8.42-1.46.98-1.98 1.68-.5.7-.87 1.52-1.11 2.46-.24.92-.36 1.9-.36 2.94s.12 2.03.36 2.97c.26.92.65 1.74 1.17 2.46.54.7 1.22 1.26 2.04 1.68.82.4 1.79.6 2.91.6 1.82 0 3.23-.47 4.23-1.41 1.02-.96 1.55-2.2 1.59-3.72h-6.21v-2.94h9.54c0 .76-.02 1.53-.06 2.31-.02.76-.13 1.56-.33 2.4-.24.9-.59 1.75-1.05 2.55-.46.78-1.05 1.46-1.77 2.04-.72.58-1.58 1.04-2.58 1.38-.98.34-2.11.51-3.39.51-1.66 0-3.12-.26-4.38-.78-1.24-.54-2.28-1.29-3.12-2.25-.84-.96-1.47-2.1-1.89-3.42-.42-1.32-.63-2.76-.63-4.32 0-1.58.21-3.04.63-4.38.42-1.34 1.04-2.49 1.86-3.45.84-.98 1.88-1.74 3.12-2.28 1.26-.54 2.72-.81 4.38-.81 1.16 0 2.23.15 3.21.45 1 .28 1.88.7 2.64 1.26.76.54 1.39 1.22 1.89 2.04.5.8.83 1.72.99 2.76h-3.51c-.26-1.06-.87-1.89-1.83-2.49-.94-.6-2.1-.9-3.48-.9zm13.038-2.85h14.73v3.12h-11.25v6.03h9.96v3.15h-9.96v5.82h11.25V29h-14.73V7.79zM249.374 29V7.79h3.75l10.56 15.93V7.79h3.45V29h-3.72l-10.62-15.87V29h-3.42zm26.156 0h-3.48V7.79h3.48V29zm17.678-21.21h3.93l-7.65 13.26V29h-3.48v-7.92l-7.74-13.29h4.02l5.49 9.9 5.43-9.9z" fill="#232323"/></svg><svg fill="none" viewBox="0 0 32 32" id="sprite--footer-tel" xmlns="http://www.w3.org/2000/svg"><path d="M7.68 5.654l2.28-2.28a1 1 0 011.414 0l3.919 3.919a1 1 0 010 1.414l-2.626 2.625a1.31 1.31 0 00-.245 1.512 15.058 15.058 0 006.734 6.734 1.31 1.31 0 001.511-.245l2.626-2.626a1 1 0 011.414 0l3.92 3.92a1 1 0 010 1.413l-2.28 2.28a6 6 0 01-7.843.558l-3.875-2.907a23 23 0 01-4.6-4.6l-2.907-3.875a6 6 0 01.558-7.842z" fill="#fff"/></svg><svg fill="none" viewBox="0 0 296 23" id="sprite--header-logo" xmlns="http://www.w3.org/2000/svg"><path d="M.46 22V.79h3.48v9.27h2.7L13.18.79h4.02L9.64 11.08 17.29 22h-4.08l-6.24-8.85H3.94V22H.46zM168.624.79h14.73v3.12h-11.25v6.03h9.96v3.15h-9.96v5.82h11.25V22h-14.73V.79z" fill="#7064FB"/><path d="M34.28 22l-1.56-4.29h-9.63L21.5 22h-3.78L25.76.79h4.32L38.09 22h-3.81zm-2.64-7.41L27.92 4.21l-3.75 10.38h7.47zm8.114-10.68V.79h15.75v2.73l-11.7 15.39h11.49V22h-15.87v-2.76l11.64-15.33h-11.31zM73.392 22l-1.56-4.29h-9.63L60.612 22h-3.78L64.872.79h4.32L77.202 22h-3.81zm-2.64-7.41l-3.72-10.38-3.75 10.38h7.47zM79.825 22V.79h3.75l10.56 15.93V.79h3.45V22h-3.72L83.245 6.13V22h-3.42zm31.496-18.36c-1.12 0-2.09.21-2.91.63-.8.42-1.46.98-1.98 1.68s-.91 1.52-1.17 2.46c-.24.92-.36 1.89-.36 2.91 0 1.04.13 2.03.39 2.97.26.94.65 1.77 1.17 2.49.54.7 1.22 1.26 2.04 1.68.82.42 1.79.63 2.91.63 1.38 0 2.53-.3 3.45-.9.94-.6 1.53-1.41 1.77-2.43h3.48c-.16 1.02-.5 1.93-1.02 2.73-.5.8-1.13 1.48-1.89 2.04-.76.54-1.64.96-2.64 1.26-1 .28-2.07.42-3.21.42-1.66 0-3.12-.27-4.38-.81-1.24-.54-2.28-1.29-3.12-2.25-.84-.96-1.47-2.1-1.89-3.42-.42-1.32-.63-2.77-.63-4.35 0-1.54.21-2.97.63-4.29.44-1.34 1.08-2.49 1.92-3.45.84-.98 1.88-1.74 3.12-2.28 1.26-.56 2.72-.84 4.38-.84 2.34 0 4.27.55 5.79 1.65 1.52 1.1 2.44 2.72 2.76 4.86h-3.42c-.26-1.04-.84-1.86-1.74-2.46-.9-.62-2.05-.93-3.45-.93zM123.683.79h14.73v3.12h-11.25v6.03h9.96v3.15h-9.96v5.82h11.25V22h-14.73V.79zm20.136 0l6.33 17.49 6.3-17.49h3.75L152.219 22h-4.23L139.979.79h3.84zm44.941 0l6.33 17.49 6.3-17.49h3.75L197.16 22h-4.23L184.92.79h3.84zm27.09 2.85c-1.12.02-2.08.24-2.88.66-.8.42-1.46.98-1.98 1.68-.5.7-.87 1.52-1.11 2.46-.24.92-.36 1.9-.36 2.94s.12 2.03.36 2.97c.26.92.65 1.74 1.17 2.46.54.7 1.22 1.26 2.04 1.68.82.4 1.79.6 2.91.6 1.82 0 3.23-.47 4.23-1.41 1.02-.96 1.55-2.2 1.59-3.72h-6.21v-2.94h9.54c0 .76-.02 1.53-.06 2.31-.02.76-.13 1.56-.33 2.4-.24.9-.59 1.75-1.05 2.55-.46.78-1.05 1.46-1.77 2.04-.72.58-1.58 1.04-2.58 1.38-.98.34-2.11.51-3.39.51-1.66 0-3.12-.26-4.38-.78-1.24-.54-2.28-1.29-3.12-2.25-.84-.96-1.47-2.1-1.89-3.42-.42-1.32-.63-2.76-.63-4.32 0-1.58.21-3.04.63-4.38.42-1.34 1.04-2.49 1.86-3.45.84-.98 1.88-1.74 3.12-2.28 1.26-.54 2.72-.81 4.38-.81 1.16 0 2.23.15 3.21.45 1 .28 1.88.7 2.64 1.26.76.54 1.39 1.22 1.89 2.04.5.8.83 1.72.99 2.76h-3.51c-.26-1.06-.87-1.89-1.83-2.49-.94-.6-2.1-.9-3.48-.9zM228.888.79h14.73v3.12h-11.25v6.03h9.96v3.15h-9.96v5.82h11.25V22h-14.73V.79zM247.374 22V.79h3.75l10.56 15.93V.79h3.45V22h-3.72l-10.62-15.87V22h-3.42zm26.156 0h-3.48V.79h3.48V22zM291.208.79h3.93l-7.65 13.26V22h-3.48v-7.92L276.268.79h4.02l5.49 9.9 5.43-9.9z" fill="#232323"/></svg><svg fill="none" viewBox="0 0 32 32" id="sprite--mechanism" xmlns="http://www.w3.org/2000/svg"><path fill-rule="evenodd" clip-rule="evenodd" d="M18.848 4.482c.165 1.653.248 2.48.8 2.708.554.23 1.197-.297 2.482-1.349.674-.55 1.01-.826 1.395-.807.385.02.689.324 1.297.932l1.212 1.212c.608.608.912.912.931 1.297.02.385-.256.721-.807 1.394-1.052 1.286-1.578 1.929-1.349 2.482.23.553 1.056.635 2.709.8.865.087 1.298.13 1.557.416.258.286.258.716.258 1.576v1.713c0 .86 0 1.29-.258 1.576-.259.286-.692.33-1.557.416-1.653.165-2.48.248-2.708.8-.23.554.297 1.196 1.349 2.482.55.673.826 1.01.806 1.394-.019.385-.323.69-.931 1.298l-1.212 1.211c-.608.608-.912.912-1.297.932-.385.019-.721-.256-1.395-.807-1.285-1.052-1.928-1.578-2.481-1.35-.553.23-.636 1.056-.801 2.71-.086.865-.13 1.298-.415 1.557-.286.258-.716.258-1.576.258h-1.714c-.86 0-1.29 0-1.576-.258-.286-.259-.329-.692-.415-1.557-.166-1.653-.248-2.48-.801-2.709-.553-.229-1.196.297-2.482 1.35-.673.55-1.01.826-1.394.806-.385-.019-.69-.323-1.298-.931l-1.211-1.212c-.608-.608-.912-.912-.932-1.297-.019-.385.257-.721.807-1.395 1.052-1.285 1.578-1.928 1.35-2.481-.23-.553-1.056-.636-2.71-.801-.865-.086-1.297-.13-1.556-.415-.258-.286-.258-.716-.258-1.576v-1.714c0-.86 0-1.29.258-1.576.259-.286.691-.329 1.557-.415 1.653-.166 2.48-.248 2.709-.801.229-.553-.297-1.196-1.35-2.482-.55-.673-.826-1.01-.807-1.395.02-.385.324-.689.932-1.297l1.212-1.212c.608-.608.912-.912 1.297-.931.385-.02.721.256 1.394.807 1.286 1.052 1.93 1.578 2.482 1.349.553-.23.635-1.056.8-2.708.087-.866.13-1.298.416-1.557.286-.258.716-.258 1.576-.258h1.713c.86 0 1.29 0 1.576.258.286.259.33.691.416 1.557zM16 21.333a5.333 5.333 0 100-10.666 5.333 5.333 0 000 10.666z" fill="#B0A9F5"/></svg><svg fill="none" viewBox="0 0 60 60" id="sprite--rino" xmlns="http://www.w3.org/2000/svg"><path d="M22.234 4.502c-.22.241-.22-.04.01 9.891.14 6.216.13 6.708-.26 8.023-.339 1.135-.718 1.788-4.12 7.04-3.444 5.301-3.474 5.361-3.064 5.874.26.32.828.32 1.147-.01.13-.141 1.307-1.898 2.615-3.917 1.307-2.018 2.684-4.137 3.063-4.72l.689-1.054-.06.693a19.18 19.18 0 01-.27 1.637c-.2.884-.2.954-.04 1.195.3.462.948.542 1.278.16.25-.3.668-2.4.668-3.413 0-.683-.24-.964-.808-.904-.21.02-.39.03-.39.02 0-.19.73-1.476.969-1.707l.33-.311-.01-1.798c0-.994-.08-5.08-.17-9.087-.2-8.264-.14-7.823-.958-7.823-.31 0-.48.06-.62.211zm14.669 0c-.17.191-.19.412-.22 2.3l-.04 2.078.27.211c.34.271.748.281 1.058.03.23-.19.24-.25.3-2.179.069-2.068.059-2.179-.19-2.48-.22-.25-.928-.23-1.178.04zm-.08 6.648c-.21.22-.23.331-.29 2.028-.04.994-.1 3.605-.13 5.794l-.069 3.996.34.322c.189.18.488.642.668 1.024.18.372.32.693.32.703 0 .01-.18 0-.39-.02-.569-.06-.808.22-.808.904 0 1.114.439 3.203.718 3.464.23.21.798.22 1.028.03.33-.271.36-.572.15-1.486a19.79 19.79 0 01-.26-1.577l-.06-.703.689 1.055c.38.582 1.756 2.7 3.063 4.72 1.308 2.018 2.485 3.765 2.615 3.885.499.462 1.337.11 1.337-.542 0-.21-.928-1.707-3.263-5.302-1.786-2.761-3.423-5.382-3.642-5.824-.849-1.787-.888-2.25-.749-8.505l.08-3.695-.25-.251c-.319-.322-.788-.332-1.097-.02z" fill="#fff"/><path d="M21.116 30.971c-.3.262-1.716 3.013-1.716 3.334 0 .593.619.964 1.157.693.32-.16 1.837-2.982 1.837-3.424 0-.613-.819-.994-1.278-.603zm17.094.081c-.15.14-.25.361-.25.522 0 .442 1.517 3.263 1.837 3.424.598.301 1.237-.16 1.127-.813-.07-.412-1.417-2.973-1.686-3.214-.29-.25-.739-.22-1.028.08zM8.423 35.52c-.25.251-.35.663-.23.934.06.12.889.874 1.857 1.677s1.756 1.486 1.756 1.526c.01.05-.1.08-.23.08-.269 0-.658.422-.658.714 0 .31.21.662.469.783.18.08.549.07 1.497-.04.688-.09 1.337-.201 1.437-.251.299-.161.359-.593.269-1.908-.1-1.446-.23-1.707-.878-1.707-.43 0-.689.24-.788.703l-.06.31-1.687-1.415c-.928-.783-1.766-1.456-1.866-1.516-.29-.15-.678-.1-.888.11zm42.6-.1c-.09.05-.918.733-1.846 1.506l-1.687 1.416-.06-.311c-.1-.462-.359-.703-.788-.703-.649 0-.778.26-.878 1.707-.09 1.315-.03 1.747.27 1.908.1.05.748.16 1.436.25.948.111 1.317.121 1.497.04.26-.12.47-.471.47-.782 0-.292-.39-.713-.66-.713-.13 0-.239-.03-.229-.08 0-.04.788-.724 1.756-1.527.968-.803 1.796-1.556 1.856-1.677.3-.663-.509-1.406-1.137-1.034zm-32.611.823c-.35.191-1.797 2.922-1.806 3.414 0 .643.618.994 1.197.683.22-.12 1.796-3.093 1.796-3.394 0-.281-.39-.703-.698-.773-.14-.03-.36 0-.49.07zm22.881-.02c-.27.11-.539.482-.539.733 0 .291 1.587 3.274 1.797 3.384.309.16.778.12.997-.1.37-.372.26-.794-.558-2.34-.41-.783-.809-1.476-.869-1.546-.17-.171-.588-.241-.828-.13zm-25.865 5.503c-.27.27-1.716 3.072-1.716 3.313 0 .121.11.332.24.483.179.22.319.28.618.27.48-.01.539-.09 1.427-1.787.768-1.466.868-1.898.509-2.26-.26-.26-.828-.27-1.078-.02zm28.42.02c-.37.371-.27.803.559 2.35.409.773.808 1.476.888 1.546.07.08.29.14.499.15.29.01.429-.05.608-.27.13-.151.24-.362.24-.483 0-.25-1.437-3.032-1.706-3.303-.26-.261-.829-.251-1.088.01z" fill="#fff"/><path d="M49.785 42.9c-.3.292-.31.453-.06 1.356.848 3.073-.339 6.427-2.944 8.294-.568.412-1.796 1.045-2.025 1.045-.05 0-.07-.09-.04-.201.12-.462-.34-1.004-.848-1.004-.1 0-.41.16-.709.361-.609.412-1.397.784-1.906.894a1.4 1.4 0 00-.549.261c-.2.18-.23.18-1.097 0-.5-.1-1.138-.281-1.417-.402-.709-.28-1.697-.783-1.767-.903-.06-.09.919-.994 1.298-1.195.768-.402 1.766-.332 2.574.19.828.523 1.507.292 1.507-.512 0-.351-.06-.472-.3-.662-.867-.713-2.185-1.045-3.312-.844-1.038.181-1.637.552-3.233 2.029-2.316 2.138-2.894 2.43-4.83 2.43s-2.515-.292-4.83-2.43c-1.597-1.477-2.195-1.848-3.233-2.029-1.537-.27-3.483.492-3.632 1.426-.04.301-.01.412.2.623.338.341.748.331 1.316-.03.839-.533 1.806-.603 2.585-.191.3.16 1.357 1.084 1.357 1.195 0 .1-.928.592-1.726.903-.28.12-.918.302-1.417.402-.869.18-.898.18-1.098 0-.11-.1-.36-.22-.549-.261-.509-.11-1.297-.482-1.906-.894-.3-.2-.608-.361-.708-.361-.51 0-.968.542-.849 1.004.07.261-.01.251-.788-.1-3.393-1.547-5.219-5.433-4.23-9.018.249-.913.249-.984-.05-1.275-.32-.331-.829-.341-1.128-.02-.42.442-.649 1.657-.649 3.334 0 1.747.17 2.56.828 3.956 1.347 2.832 3.782 4.67 7.015 5.282 1.048.2 3.204.2 4.261-.01 1.108-.211 2.535-.733 3.513-1.285l.788-.452.52.401c2.105 1.677 5.198 1.989 7.623.764.38-.201.928-.543 1.217-.784.49-.381.56-.411.749-.291 1.207.763 2.814 1.396 4.22 1.667 1.218.23 3.743.15 4.84-.14 1.797-.493 3.084-1.186 4.291-2.32.949-.894 1.547-1.717 2.066-2.842.978-2.089 1.158-4.519.5-6.668-.12-.381-.28-.692-.42-.793a.775.775 0 00-1.018.1z" fill="#fff"/><path d="M13.303 47.36c-.21.17-.23.26-.21.933.03 1.235.56 2.922 1.008 3.263.43.332 1.208-.04 1.208-.572 0-.16-.13-.693-.3-1.185-.16-.502-.299-1.104-.299-1.345 0-.573-.17-1.065-.4-1.185-.299-.161-.758-.12-1.007.09zm32.71-.071c-.23.18-.369.622-.369 1.155 0 .25-.13.853-.3 1.355-.159.492-.299 1.024-.299 1.185 0 .532.779.904 1.208.572.399-.3.838-1.576.978-2.831.13-1.155-.07-1.557-.759-1.557-.16 0-.369.06-.459.12z" fill="#fff"/></svg><svg fill="none" viewBox="0 0 32 32" id="sprite--search" xmlns="http://www.w3.org/2000/svg"><circle cx="14.667" cy="14.667" r="9.333" stroke="#796CF9" stroke-width="2"/><path d="M14.667 10.667a4 4 0 00-4 4m16 12l-4-4" stroke="#796CF9" stroke-width="2" stroke-linecap="round"/></svg><svg fill="none" viewBox="0 0 32 32" id="sprite--services" xmlns="http://www.w3.org/2000/svg"><path fill-rule="evenodd" clip-rule="evenodd" d="M18.848 4.482c.165 1.653.248 2.48.8 2.708.554.23 1.197-.297 2.482-1.349.674-.55 1.01-.826 1.395-.807.385.02.689.324 1.297.932l1.212 1.212c.608.608.912.912.931 1.297.02.385-.256.721-.807 1.394-1.052 1.286-1.578 1.929-1.349 2.482.23.553 1.056.635 2.709.8.865.087 1.298.13 1.557.416.258.286.258.716.258 1.576v1.713c0 .86 0 1.29-.258 1.576-.259.286-.692.33-1.557.416-1.653.165-2.48.248-2.708.8-.23.554.297 1.196 1.349 2.482.55.673.826 1.01.806 1.394-.019.385-.323.69-.931 1.298l-1.212 1.211c-.608.608-.912.912-1.297.932-.385.019-.721-.256-1.395-.807-1.285-1.052-1.928-1.578-2.481-1.35-.553.23-.636 1.056-.801 2.71-.086.865-.13 1.298-.415 1.557-.286.258-.716.258-1.576.258h-1.714c-.86 0-1.29 0-1.576-.258-.286-.259-.329-.692-.415-1.557-.166-1.653-.248-2.48-.801-2.709-.553-.229-1.196.297-2.482 1.35-.673.55-1.01.826-1.394.806-.385-.019-.69-.323-1.298-.931l-1.211-1.212c-.608-.608-.912-.912-.932-1.297-.019-.385.257-.721.807-1.395 1.052-1.285 1.578-1.928 1.35-2.481-.23-.553-1.056-.636-2.71-.801-.865-.086-1.297-.13-1.556-.415-.258-.286-.258-.716-.258-1.576v-1.714c0-.86 0-1.29.258-1.576.259-.286.691-.329 1.557-.415 1.653-.166 2.48-.248 2.709-.801.229-.553-.297-1.196-1.35-2.482-.55-.673-.826-1.01-.807-1.395.02-.385.324-.689.932-1.297l1.212-1.212c.608-.608.912-.912 1.297-.931.385-.02.721.256 1.394.807 1.286 1.052 1.93 1.578 2.482 1.349.553-.23.635-1.056.8-2.708.087-.866.13-1.298.416-1.557.286-.258.716-.258 1.576-.258h1.713c.86 0 1.29 0 1.576.258.286.259.33.691.416 1.557zM16 21.333a5.333 5.333 0 100-10.666 5.333 5.333 0 000 10.666z" fill="#B0A9F5"/></svg><svg fill="none" viewBox="0 0 32 32" id="sprite--social_odn" xmlns="http://www.w3.org/2000/svg"><g clip-path="url(#nclip0_647_2193)"><path d="M13.157 10.364A2.853 2.853 0 0116 7.507a2.853 2.853 0 012.843 2.857A2.846 2.846 0 0116 13.207a2.85 2.85 0 01-2.843-2.843zM32 3.43v25.14A3.43 3.43 0 0128.571 32H3.43A3.43 3.43 0 010 28.571V3.43A3.43 3.43 0 013.429 0H28.57A3.43 3.43 0 0132 3.429zm-21.793 6.935c0 3.186 2.6 5.779 5.793 5.779s5.793-2.586 5.793-5.779a5.792 5.792 0 10-11.586 0zm12.464 6.479c-.328-.65-1.235-1.2-2.435-.257 0 0-1.622 1.285-4.236 1.285s-4.236-1.285-4.236-1.285c-1.2-.943-2.107-.393-2.435.257-.565 1.15.078 1.693 1.528 2.643 1.236.793 2.943 1.085 4.043 1.2l-.921.921c-1.3 1.286-2.536 2.536-3.408 3.407-1.257 1.257.765 3.272 2.029 2.043l3.407-3.421c1.3 1.3 2.55 2.55 3.407 3.421 1.257 1.229 3.286-.764 2.043-2.043l-3.407-3.407-.929-.921c1.108-.115 2.793-.422 4.015-1.2 1.457-.95 2.093-1.5 1.535-2.643z" fill="#fff"/></g><defs><clipPath id="nclip0_647_2193"><path fill="#fff" d="M0 0h32v32H0z"/></clipPath></defs></svg><svg fill="none" viewBox="0 0 32 32" id="sprite--social_tg" xmlns="http://www.w3.org/2000/svg"><path fill-rule="evenodd" clip-rule="evenodd" d="M32 16c0 8.836-7.164 16-16 16S0 24.836 0 16 7.164 0 16 0s16 7.164 16 16zm-15.427-4.188c-1.556.647-4.666 1.987-9.33 4.019-.758.301-1.155.596-1.191.884-.061.488.55.68 1.379.94.113.036.23.072.35.112.818.265 1.916.576 2.487.588.519.01 1.097-.203 1.736-.64 4.357-2.943 6.607-4.43 6.748-4.462.1-.022.239-.052.332.032.093.083.084.24.075.283-.062.257-2.454 2.483-3.694 3.635-.386.358-.66.613-.716.672-.125.129-.253.253-.376.372-.76.73-1.328 1.28.032 2.176.654.43 1.176.786 1.698 1.141.569.388 1.137.775 1.873 1.257.187.123.365.25.54.374.663.473 1.259.897 1.995.83.426-.04.869-.441 1.093-1.64.53-2.834 1.572-8.973 1.813-11.504a2.82 2.82 0 00-.026-.629.675.675 0 00-.23-.433c-.19-.156-.486-.19-.62-.187-.601.01-1.524.332-5.968 2.18z" fill="#fff"/></svg><svg fill="none" viewBox="0 0 32 32" id="sprite--social_vk" xmlns="http://www.w3.org/2000/svg"><path d="M20.911 0H11.09C2.125 0 0 2.125 0 11.089v9.822C0 29.875 2.125 32 11.089 32h9.822C29.875 32 32 29.875 32 20.911V11.09C32 2.125 29.854 0 20.911 0zm4.922 22.827H23.51c-.88 0-1.15-.698-2.734-2.302-1.375-1.333-1.984-1.51-2.323-1.51-.479 0-.615.135-.615.792v2.1c0 .562-.177.9-1.666.9-2.464 0-5.198-1.49-7.115-4.266-2.891-4.068-3.682-7.114-3.682-7.744 0-.34.135-.656.786-.656h2.328c.589 0 .813.27 1.042.9 1.15 3.324 3.068 6.235 3.859 6.235.292 0 .427-.136.427-.88v-3.432c-.09-1.583-.922-1.72-.922-2.281 0-.271.224-.542.583-.542h3.66c.495 0 .677.27.677.854v4.63c0 .5.224.677.36.677.291 0 .541-.177 1.082-.72 1.672-1.874 2.87-4.765 2.87-4.765.156-.34.427-.656 1.016-.656h2.328c.698 0 .854.359.698.859-.292 1.354-3.14 5.375-3.14 5.375-.246.405-.34.582 0 1.035.25.34 1.062 1.042 1.603 1.672.995 1.13 1.76 2.078 1.964 2.734.23.651-.109.99-.766.99l.003.001z" fill="#fff"/></svg><svg fill="none" viewBox="0 0 32 32" id="sprite--tel" xmlns="http://www.w3.org/2000/svg"><path d="M7.68 5.654l2.28-2.28a1 1 0 011.414 0l3.919 3.919a1 1 0 010 1.414l-2.626 2.625a1.31 1.31 0 00-.245 1.512 15.058 15.058 0 006.734 6.734 1.31 1.31 0 001.511-.245l2.626-2.626a1 1 0 011.414 0l3.92 3.92a1 1 0 010 1.413l-2.28 2.28a6 6 0 01-7.843.558l-3.875-2.907a23 23 0 01-4.6-4.6l-2.907-3.875a6 6 0 01.558-7.842z" fill="#B0A9F5"/></svg></svg>