<svg width="72" height="72" viewBox="0 0 72 72" fill="none" xmlns="http://www.w3.org/2000/svg">
<path fill-rule="evenodd" clip-rule="evenodd" d="M27.8574 9H18.017C16.5648 9 15.8387 9 15.3041 9.4033C14.7694 9.80661 14.5699 10.5048 14.171 11.9011L10.1215 26.074C10.2382 26.0263 10.366 26 10.4998 26H24.6699L27.8574 9ZM9.68952 27.5861L9.28729 28.9939C9.14646 29.4868 9.07605 29.7333 9.12577 29.974C9.17549 30.2147 9.33781 30.4131 9.66243 30.8098L31.0197 56.9132L24.6949 28H10.4998C10.1665 28 9.87122 27.8369 9.68952 27.5861ZM38.1856 60.3285L37.5478 61.1081C36.8317 61.9832 36.4737 62.4208 35.9998 62.4208C35.526 62.4208 35.168 61.9832 34.4519 61.1081L33.8141 60.3285L26.7422 28H45.2574L38.1856 60.3285ZM40.98 56.9132L62.3373 30.8098C62.6619 30.4131 62.8242 30.2147 62.8739 29.974C62.9236 29.7333 62.8532 29.4868 62.7124 28.9939L62.3102 27.5861C62.1285 27.8369 61.8332 28 61.4998 28H47.3047L40.98 56.9132ZM61.8781 26.074L57.8287 11.9011C57.4298 10.5048 57.2303 9.80661 56.6956 9.4033C56.161 9 55.4348 9 53.9826 9H44.1423L47.3298 26H61.4998C61.6337 26 61.7614 26.0263 61.8781 26.074ZM42.1074 9H29.8923L26.7048 26H45.2949L42.1074 9Z" fill="#B0A9F5"/>
</svg>
