<svg width="72" height="72" viewBox="0 0 72 72" fill="none" xmlns="http://www.w3.org/2000/svg">
<path fill-rule="evenodd" clip-rule="evenodd" d="M60 33C60 24.5732 60 20.3598 57.9776 17.3332C57.1021 16.0229 55.9771 14.8979 54.6668 14.0224C51.6402 12 47.4268 12 39 12H33C24.5732 12 20.3598 12 17.3332 14.0224C16.0229 14.8979 14.8979 16.0229 14.0224 17.3332C12 20.3598 12 24.5732 12 33C12 41.4268 12 45.6402 14.0224 48.6668C14.8979 49.9771 16.0229 51.1021 17.3332 51.9776C19.9772 53.7443 23.5269 53.9677 30 53.9959V54L33.3167 60.6334C34.4223 62.8446 37.5777 62.8446 38.6833 60.6334L42 54V53.9959C48.4731 53.9677 52.0228 53.7443 54.6668 51.9776C55.9771 51.1021 57.1021 49.9771 57.9776 48.6668C60 45.6402 60 41.4268 60 33ZM27 26C26.4477 26 26 26.4477 26 27C26 27.5523 26.4477 28 27 28H45C45.5523 28 46 27.5523 46 27C46 26.4477 45.5523 26 45 26H27ZM27 38C26.4477 38 26 38.4477 26 39C26 39.5523 26.4477 40 27 40H36C36.5523 40 37 39.5523 37 39C37 38.4477 36.5523 38 36 38H27Z" fill="#B0A9F5"/>
</svg>
