<svg width="72" height="72" viewBox="0 0 72 72" fill="none" xmlns="http://www.w3.org/2000/svg">
<path fill-rule="evenodd" clip-rule="evenodd" d="M33.675 61.3393L16.675 49.1964C15.8539 48.6099 15.4433 48.3166 15.2217 47.8859C15 47.4552 15 46.9506 15 45.9415V26.0584C15 25.7371 15 25.4669 15.0072 25.234L35 39.5146V62.2313C34.6433 62.0308 34.227 61.7335 33.675 61.3393ZM37 62.2313C37.3568 62.0308 37.773 61.7335 38.325 61.3393L55.325 49.1964C56.1461 48.6099 56.5567 48.3166 56.7783 47.8859C57 47.4552 57 46.9506 57 45.9415V26.0584C57 25.7371 57 25.4669 56.9928 25.234L37 39.5146V62.2313ZM56.1276 23.3942L36 37.7711L15.8724 23.3942C16.0837 23.2259 16.3465 23.0382 16.675 22.8035L33.675 10.6606C34.7977 9.85872 35.3591 9.45776 36 9.45776C36.6409 9.45776 37.2023 9.85872 38.325 10.6606L55.325 22.8035C55.6535 23.0382 55.9163 23.2259 56.1276 23.3942Z" fill="#B0A9F5"/>
</svg>
