<svg width="72" height="72" viewBox="0 0 72 72" fill="none" xmlns="http://www.w3.org/2000/svg">
<path d="M48 9L48 18M24 9L24 18" stroke="#B0A9F5" stroke-width="2" stroke-linecap="round"/>
<path fill-rule="evenodd" clip-rule="evenodd" d="M46 12.0002C45.6734 12 45.3401 12 45 12H27C26.6599 12 26.3266 12 26 12.0002L26 18C26 19.1046 25.1046 20 24 20C22.8954 20 22 19.1046 22 18L22 12.0278C16.7305 12.1269 13.6938 12.5783 11.636 14.636C9 17.2721 9 21.5147 9 30V45C9 53.4853 9 57.7279 11.636 60.364C14.2721 63 18.5147 63 27 63H45C53.4853 63 57.7279 63 60.364 60.364C63 57.7279 63 53.4853 63 45V30C63 21.5147 63 17.2721 60.364 14.636C58.3062 12.5783 55.2696 12.1269 50 12.0278L50 18C50 19.1046 49.1046 20 48 20C46.8954 20 46 19.1046 46 18L46 12.0002ZM23 36C23 35.4477 23.4477 35 24 35H48C48.5523 35 49 35.4477 49 36C49 36.5523 48.5523 37 48 37H24C23.4477 37 23 36.5523 23 36ZM24 47C23.4477 47 23 47.4477 23 48C23 48.5523 23.4477 49 24 49H48C48.5523 49 49 48.5523 49 48C49 47.4477 48.5523 47 48 47H24Z" fill="#B0A9F5"/>
</svg>
