<svg width="32" height="32" viewBox="0 0 32 32" fill="none" xmlns="http://www.w3.org/2000/svg">
<path d="M7.67962 5.65373L9.95956 3.37379C10.3501 2.98327 10.9833 2.98327 11.3738 3.37379L15.2929 7.29291C15.6834 7.68344 15.6834 8.3166 15.2929 8.70713L12.6673 11.3327C12.2688 11.7312 12.17 12.34 12.422 12.8441C13.8791 15.7581 16.2419 18.121 19.1559 19.578C19.66 19.83 20.2688 19.7312 20.6673 19.3327L23.2929 16.7071C23.6834 16.3166 24.3166 16.3166 24.7071 16.7071L28.6262 20.6262C29.0168 21.0168 29.0168 21.6499 28.6262 22.0405L26.3463 24.3204C24.2349 26.4317 20.8924 26.6693 18.5037 24.8778L14.6286 21.9714C12.885 20.6638 11.3362 19.115 10.0286 17.3715L7.12226 13.4964C5.33072 11.1077 5.56827 7.76508 7.67962 5.65373Z" fill="#B0A9F5"/>
</svg>
