<svg width="32" height="32" viewBox="0 0 32 32" fill="none" xmlns="http://www.w3.org/2000/svg">
<path fill-rule="evenodd" clip-rule="evenodd" d="M4.87868 7.54537C4 8.42405 4 9.83826 4 12.6667V19.3334C4 22.1618 4 23.576 4.87868 24.4547C5.75736 25.3334 7.17157 25.3334 10 25.3334H22C24.8284 25.3334 26.2426 25.3334 27.1213 24.4547C28 23.576 28 22.1618 28 19.3334V12.6667C28 9.83826 28 8.42405 27.1213 7.54537C26.2426 6.66669 24.8284 6.66669 22 6.66669H10C7.17157 6.66669 5.75736 6.66669 4.87868 7.54537ZM8.5547 11.168C8.09517 10.8616 7.4743 10.9858 7.16795 11.4453C6.8616 11.9048 6.98577 12.5257 7.4453 12.8321L14.8906 17.7956C15.5624 18.2435 16.4376 18.2435 17.1094 17.7956L24.5547 12.8321C25.0142 12.5257 25.1384 11.9048 24.8321 11.4453C24.5257 10.9858 23.9048 10.8616 23.4453 11.168L16 16.1315L8.5547 11.168Z" fill="#B0A9F5"/>
</svg>
