<svg width="80" height="80" viewBox="0 0 80 80" fill="none" xmlns="http://www.w3.org/2000/svg">
<path d="M60 0H20C15.855 0 12.5 3.3575 12.5 7.5V72.5C12.5 76.645 15.8575 80 20 80H60C64.14 80 67.5 76.64 67.5 72.5V7.5C67.5 3.355 64.14 0 60 0ZM62.5 72.5C62.5 73.8775 61.3775 75 60 75H20C18.62 75 17.5 73.8825 17.5 72.5V67.49H62.5V72.5ZM62.5 64.99H17.5V15H62.5V64.99ZM62.5 12.5H17.5V7.5C17.5 6.12 18.62 5 20 5H60C61.3775 5 62.5 6.12 62.5 7.5V12.5Z" fill="white"/>
<path d="M45 8.75C45 9.44 44.4375 10 43.75 10H36.25C35.5575 10 35 9.44 35 8.75C35 8.0575 35.5575 7.5 36.25 7.5H43.75C44.4375 7.5 45 8.0575 45 8.75Z" fill="white"/>
<path d="M42.5 71.24C42.5 71.9275 41.9375 72.49 41.25 72.49H38.75C38.06 72.49 37.5 71.9275 37.5 71.24C37.5 70.5475 38.06 69.99 38.75 69.99H41.25C41.9375 69.99 42.5 70.5475 42.5 71.24Z" fill="white"/>
</svg>
