<svg width="32" height="32" viewBox="0 0 32 32" fill="none" xmlns="http://www.w3.org/2000/svg">
<path fill-rule="evenodd" clip-rule="evenodd" d="M4.87868 7.54518C4 8.42386 4 9.83808 4 12.6665V19.3332C4 22.1616 4 23.5758 4.87868 24.4545C5.75736 25.3332 7.17157 25.3332 10 25.3332H22C24.8284 25.3332 26.2426 25.3332 27.1213 24.4545C28 23.5758 28 22.1616 28 19.3332V12.6665C28 9.83808 28 8.42386 27.1213 7.54518C26.2426 6.6665 24.8284 6.6665 22 6.6665H10C7.17157 6.6665 5.75736 6.6665 4.87868 7.54518ZM8.5547 11.1678C8.09517 10.8614 7.4743 10.9856 7.16795 11.4451C6.8616 11.9047 6.98577 12.5255 7.4453 12.8319L14.8906 17.7954C15.5624 18.2433 16.4376 18.2433 17.1094 17.7954L24.5547 12.8319C25.0142 12.5255 25.1384 11.9047 24.8321 11.4451C24.5257 10.9856 23.9048 10.8614 23.4453 11.1678L16 16.1313L8.5547 11.1678Z" fill="white"/>
</svg>
