<svg width="80" height="80" viewBox="0 0 80 80" fill="none" xmlns="http://www.w3.org/2000/svg">
<g clip-path="url(#clip0_128_3185)">
<path d="M71.6667 0H8.33333C6.1232 0 4.00358 0.877974 2.44078 2.44078C0.877974 4.00358 0 6.1232 0 8.33333L0 71.6667C0 72.761 0.215548 73.8447 0.634337 74.8557C1.05313 75.8667 1.66696 76.7854 2.44078 77.5592C3.2146 78.333 4.13326 78.9469 5.1443 79.3657C6.15535 79.7844 7.23898 80 8.33333 80H71.6667C72.761 80 73.8447 79.7844 74.8557 79.3657C75.8667 78.9469 76.7854 78.333 77.5592 77.5592C78.333 76.7854 78.9469 75.8667 79.3657 74.8557C79.7844 73.8447 80 72.761 80 71.6667V8.33333C80 7.23898 79.7844 6.15535 79.3657 5.1443C78.9469 4.13326 78.333 3.2146 77.5592 2.44078C76.7854 1.66696 75.8667 1.05313 74.8557 0.634337C73.8447 0.215548 72.761 0 71.6667 0ZM8.33333 76.6667C7.00725 76.6667 5.73548 76.1399 4.7978 75.2022C3.86012 74.2645 3.33333 72.9927 3.33333 71.6667V67.4333L30 40.7667L65.9833 76.6667H8.33333ZM76.6667 71.6667C76.6667 72.9927 76.1399 74.2645 75.2022 75.2022C74.2645 76.1399 72.9927 76.6667 71.6667 76.6667H70.6833L47.5833 53.5667L60.2333 40.9167L76.6667 57.35V71.6667ZM76.6667 52.65L61.4 37.3833C61.0877 37.0729 60.6653 36.8987 60.225 36.8987C59.7847 36.8987 59.3623 37.0729 59.05 37.3833L45.2333 51.2L31.2167 37.1833C30.9044 36.8729 30.482 36.6987 30.0417 36.6987C29.6014 36.6987 29.1789 36.8729 28.8667 37.1833L3.33333 62.7167V8.33333C3.33333 7.00725 3.86012 5.73548 4.7978 4.7978C5.73548 3.86012 7.00725 3.33333 8.33333 3.33333H71.6667C72.9927 3.33333 74.2645 3.86012 75.2022 4.7978C76.1399 5.73548 76.6667 7.00725 76.6667 8.33333V52.65Z" fill="white"/>
<path d="M41.6668 11.6667C39.6889 11.6667 37.7555 12.2532 36.1111 13.352C34.4666 14.4508 33.1848 16.0126 32.428 17.8398C31.6711 19.6671 31.473 21.6778 31.8589 23.6176C32.2448 25.5574 33.1972 27.3392 34.5957 28.7377C35.9942 30.1363 37.776 31.0887 39.7159 31.4745C41.6557 31.8604 43.6663 31.6623 45.4936 30.9055C47.3208 30.1486 48.8826 28.8669 49.9814 27.2224C51.0803 25.5779 51.6668 23.6445 51.6668 21.6667C51.6668 19.0145 50.6132 16.471 48.7378 14.5956C46.8625 12.7202 44.3189 11.6667 41.6668 11.6667ZM41.6668 28.3333C40.3482 28.3333 39.0593 27.9423 37.963 27.2098C36.8666 26.4773 36.0121 25.4361 35.5076 24.2179C35.003 22.9997 34.8709 21.6593 35.1282 20.3661C35.3854 19.0729 36.0204 17.885 36.9527 16.9526C37.8851 16.0203 39.0729 15.3853 40.3662 15.1281C41.6594 14.8709 42.9998 15.0029 44.218 15.5075C45.4361 16.0121 46.4773 16.8665 47.2099 17.9629C47.9424 19.0592 48.3334 20.3481 48.3334 21.6667C48.3334 23.4348 47.631 25.1305 46.3808 26.3807C45.1306 27.631 43.4349 28.3333 41.6668 28.3333Z" fill="white"/>
</g>
<defs>
<clipPath id="clip0_128_3185">
<rect width="80" height="80" fill="white"/>
</clipPath>
</defs>
</svg>
