<svg width="80" height="80" viewBox="0 0 80 80" fill="none" xmlns="http://www.w3.org/2000/svg">
<path d="M78.586 21.0525H78.5147C77.1447 21.0612 76.9322 19.8713 76.9085 19.3188V10.6775C76.9085 9.755 76.161 9.0075 75.241 9.0075H50.5347C44.336 9.0075 42.0235 11.305 41.4497 12.0263L41.2922 12.245L41.291 12.2487L40.8022 12.9187C40.146 13.82 39.5735 13.4362 39.2985 13.1412L38.3635 11.975L37.901 11.4175C37.1235 10.6012 35.0972 9.0075 31.081 9.0075H4.75973C3.83723 9.0075 3.08973 9.755 3.08973 10.6775V19.2087C3.08973 20.7025 2.27848 21.0025 1.78098 21.0525H1.41098C1.00598 21.0775 0.0634766 21.3125 0.0634766 23.0463V63.7075C0.0634766 64.705 0.872227 65.5125 1.86973 65.5125H25.8922C33.556 65.5125 36.896 68.4025 37.8972 69.5112L38.4685 70.2187C38.4685 70.2187 40.0022 71.9525 41.6172 70.2187L41.9522 69.8262L41.9572 69.8237L42.3847 69.3237C42.3972 69.3087 42.4997 69.1937 42.6485 69.0413C43.9272 67.7975 47.1235 65.5125 53.3735 65.5125H78.1297C79.1285 65.5125 79.936 64.705 79.936 63.7075V22.6525C79.936 21.1825 78.8722 21.06 78.586 21.0525ZM73.1885 57.3275C73.1885 58.1287 72.5197 58.775 71.6872 58.775H51.3185C44.0697 58.775 41.4385 62.05 41.4385 62.05L41.1047 62.4975L40.9485 62.7137C40.2572 63.6525 39.2397 62.7212 39.2347 62.7162L38.766 62.13C38.4185 61.7125 35.756 58.7738 29.3122 58.7738H8.31223C7.48348 58.7738 6.81348 58.1262 6.81348 57.3262V13.9988C6.81348 13.1988 7.48348 12.5513 8.31223 12.5513H24.616C36.7435 12.5513 37.8922 19.44 37.971 21.4412V51.5737C37.971 53.7637 39.0147 54.175 39.6035 54.235H40.4797C41.0797 54.175 42.0335 53.8187 42.0335 52.11V21.0525H42.0235C42.1135 18.5462 43.091 12.55 50.3847 12.55H71.6872C72.5197 12.55 73.1885 13.1975 73.1885 13.9975V57.3275Z" fill="white"/>
</svg>
