<svg width="80" height="80" viewBox="0 0 80 80" fill="none" xmlns="http://www.w3.org/2000/svg">
<g clip-path="url(#clip0_139_3724)">
<path d="M41.4129 1.81333L46.3196 5.57333C46.7596 5.91609 47.3095 6.08674 47.8663 6.05333L54.1329 5.76C54.6426 5.73044 55.1475 5.87177 55.5677 6.16158C55.9879 6.4514 56.2995 6.87314 56.4529 7.36L58.0796 13.1733C58.2382 13.6862 58.5799 14.1228 59.0396 14.4L64.3729 17.7067C64.8262 17.9607 65.1663 18.3771 65.3246 18.872C65.483 19.3669 65.4478 19.9034 65.2263 20.3733L62.9329 25.8933C62.747 26.3921 62.747 26.9412 62.9329 27.44L65.1729 33.0667C65.3945 33.5366 65.4296 34.0731 65.2713 34.568C65.1129 35.0629 64.7729 35.4793 64.3196 35.7333L58.9863 39.04C58.5266 39.3172 58.1849 39.7538 58.0263 40.2667L56.3996 46.08C56.2461 46.5669 55.9346 46.9886 55.5144 47.2784C55.0942 47.5682 54.5892 47.7095 54.0796 47.68L47.9996 47.28C47.4428 47.2466 46.893 47.4172 46.4529 47.76L41.5463 51.52C41.1409 51.8314 40.6441 52.0002 40.1329 52.0002C39.6218 52.0002 39.125 51.8314 38.7196 51.52L33.8129 47.76C33.3729 47.4172 32.8231 47.2466 32.2663 47.28L25.9996 47.5733C25.49 47.6029 24.9851 47.4616 24.5648 47.1717C24.1446 46.8819 23.8331 46.4602 23.6796 45.9733L22.0529 40.16C21.8944 39.6471 21.5527 39.2105 21.0929 38.9333L15.7596 35.6267C15.3017 35.377 14.9559 34.9625 14.7925 34.4673C14.6291 33.972 14.6602 33.4331 14.8796 32.96L17.1196 27.3333C17.3056 26.8346 17.3056 26.2854 17.1196 25.7867L14.8263 20.2667C14.6069 19.7935 14.5757 19.2546 14.7392 18.7594C14.9026 18.2641 15.2484 17.8496 15.7063 17.6L21.0396 14.2933C21.4993 14.0161 21.841 13.5795 21.9996 13.0667L23.6263 7.25333C23.7798 6.76647 24.0913 6.34473 24.5115 6.05492C24.9317 5.7651 25.4367 5.62378 25.9463 5.65333L32.2129 5.94666C32.7697 5.98007 33.3196 5.80943 33.7596 5.46666L38.5863 1.81333C38.9916 1.50194 39.4885 1.33314 39.9996 1.33314C40.5108 1.33314 41.0076 1.50194 41.4129 1.81333Z" stroke="white" stroke-width="3" stroke-linecap="round" stroke-linejoin="round"/>
<path d="M40 38.6667C46.6274 38.6667 52 33.2941 52 26.6667C52 20.0392 46.6274 14.6667 40 14.6667C33.3726 14.6667 28 20.0392 28 26.6667C28 33.2941 33.3726 38.6667 40 38.6667Z" stroke="white" stroke-width="3" stroke-linecap="round" stroke-linejoin="round"/>
<path d="M78.6661 68L58.1328 40" stroke="white" stroke-width="3" stroke-linecap="round" stroke-linejoin="round"/>
<path d="M78.6667 68L60 65.3333" stroke="white" stroke-width="3" stroke-linecap="round" stroke-linejoin="round"/>
<path d="M52 78.6667L60 65.3333" stroke="white" stroke-width="3" stroke-linecap="round" stroke-linejoin="round"/>
<path d="M51.9999 78.6667L45.2266 48.8" stroke="white" stroke-width="3" stroke-linecap="round" stroke-linejoin="round"/>
<path d="M1.33301 68L21.8663 40" stroke="white" stroke-width="3" stroke-linecap="round" stroke-linejoin="round"/>
<path d="M1.33301 68L19.9997 65.3333" stroke="white" stroke-width="3" stroke-linecap="round" stroke-linejoin="round"/>
<path d="M28 78.6667L20 65.3333" stroke="white" stroke-width="3" stroke-linecap="round" stroke-linejoin="round"/>
<path d="M28 78.6667L34.7733 48.8" stroke="white" stroke-width="3" stroke-linecap="round" stroke-linejoin="round"/>
</g>
<defs>
<clipPath id="clip0_139_3724">
<rect width="80" height="80" fill="white"/>
</clipPath>
</defs>
</svg>
