<svg width="296" height="23" viewBox="0 0 296 23" fill="none" xmlns="http://www.w3.org/2000/svg">
<path d="M0.46 22V0.789999H3.94V10.06H6.64L13.18 0.789999H17.2L9.64 11.08L17.29 22H13.21L6.97 13.15H3.94V22H0.46ZM168.624 0.789999H183.354V3.91H172.104V9.94H182.064V13.09H172.104V18.91H183.354V22H168.624V0.789999Z" fill="#7064FB"/>
<path d="M34.2803 22L32.7203 17.71H23.0903L21.5003 22H17.7203L25.7603 0.789999H30.0803L38.0903 22H34.2803ZM31.6403 14.59L27.9203 4.21L24.1703 14.59H31.6403ZM39.7539 3.91V0.789999H55.5039V3.52L43.8039 18.91H55.2939V22H39.4239V19.24L51.0639 3.91H39.7539ZM73.3916 22L71.8316 17.71H62.2016L60.6116 22H56.8316L64.8716 0.789999H69.1916L77.2016 22H73.3916ZM70.7516 14.59L67.0316 4.21L63.2816 14.59H70.7516ZM79.8252 22V0.789999H83.5752L94.1352 16.72V0.789999H97.5852V22H93.8652L83.2452 6.13V22H79.8252ZM111.321 3.64C110.201 3.64 109.231 3.85 108.411 4.27C107.611 4.69 106.951 5.25 106.431 5.95C105.911 6.65 105.521 7.47 105.261 8.41C105.021 9.33 104.901 10.3 104.901 11.32C104.901 12.36 105.031 13.35 105.291 14.29C105.551 15.23 105.941 16.06 106.461 16.78C107.001 17.48 107.681 18.04 108.501 18.46C109.321 18.88 110.291 19.09 111.411 19.09C112.791 19.09 113.941 18.79 114.861 18.19C115.801 17.59 116.391 16.78 116.631 15.76H120.111C119.951 16.78 119.611 17.69 119.091 18.49C118.591 19.29 117.961 19.97 117.201 20.53C116.441 21.07 115.561 21.49 114.561 21.79C113.561 22.07 112.491 22.21 111.351 22.21C109.691 22.21 108.231 21.94 106.971 21.4C105.731 20.86 104.691 20.11 103.851 19.15C103.011 18.19 102.381 17.05 101.961 15.73C101.541 14.41 101.331 12.96 101.331 11.38C101.331 9.84 101.541 8.41 101.961 7.09C102.401 5.75 103.041 4.6 103.881 3.64C104.721 2.66 105.761 1.9 107.001 1.36C108.261 0.799999 109.721 0.519999 111.381 0.519999C113.721 0.519999 115.651 1.07 117.171 2.17C118.691 3.27 119.611 4.89 119.931 7.03H116.511C116.251 5.99 115.671 5.17 114.771 4.57C113.871 3.95 112.721 3.64 111.321 3.64ZM123.683 0.789999H138.413V3.91H127.163V9.94H137.123V13.09H127.163V18.91H138.413V22H123.683V0.789999ZM143.819 0.789999L150.149 18.28L156.449 0.789999H160.199L152.219 22H147.989L139.979 0.789999H143.819ZM188.76 0.789999L195.09 18.28L201.39 0.789999H205.14L197.16 22H192.93L184.92 0.789999H188.76ZM215.85 3.64C214.73 3.66 213.77 3.88 212.97 4.3C212.17 4.72 211.51 5.28 210.99 5.98C210.49 6.68 210.12 7.5 209.88 8.44C209.64 9.36 209.52 10.34 209.52 11.38C209.52 12.42 209.64 13.41 209.88 14.35C210.14 15.27 210.53 16.09 211.05 16.81C211.59 17.51 212.27 18.07 213.09 18.49C213.91 18.89 214.88 19.09 216 19.09C217.82 19.09 219.23 18.62 220.23 17.68C221.25 16.72 221.78 15.48 221.82 13.96H215.61V11.02H225.15C225.15 11.78 225.13 12.55 225.09 13.33C225.07 14.09 224.96 14.89 224.76 15.73C224.52 16.63 224.17 17.48 223.71 18.28C223.25 19.06 222.66 19.74 221.94 20.32C221.22 20.9 220.36 21.36 219.36 21.7C218.38 22.04 217.25 22.21 215.97 22.21C214.31 22.21 212.85 21.95 211.59 21.43C210.35 20.89 209.31 20.14 208.47 19.18C207.63 18.22 207 17.08 206.58 15.76C206.16 14.44 205.95 13 205.95 11.44C205.95 9.86 206.16 8.4 206.58 7.06C207 5.72 207.62 4.57 208.44 3.61C209.28 2.63 210.32 1.87 211.56 1.33C212.82 0.789999 214.28 0.519999 215.94 0.519999C217.1 0.519999 218.17 0.669999 219.15 0.969999C220.15 1.25 221.03 1.67 221.79 2.23C222.55 2.77 223.18 3.45 223.68 4.27C224.18 5.07 224.51 5.99 224.67 7.03H221.16C220.9 5.97 220.29 5.14 219.33 4.54C218.39 3.94 217.23 3.64 215.85 3.64ZM228.888 0.789999H243.618V3.91H232.368V9.94H242.328V13.09H232.368V18.91H243.618V22H228.888V0.789999ZM247.374 22V0.789999H251.124L261.684 16.72V0.789999H265.134V22H261.414L250.794 6.13V22H247.374ZM273.53 22H270.05V0.789999H273.53V22ZM291.208 0.789999H295.138L287.488 14.05V22H284.008V14.08L276.268 0.789999H280.288L285.778 10.69L291.208 0.789999Z" fill="#232323"/>
</svg>
