<svg width="298" height="38" viewBox="0 0 298 38" fill="none" xmlns="http://www.w3.org/2000/svg">
<path d="M2.45996 29V7.79004H5.93996V17.06H8.63996L15.18 7.79004H19.2L11.64 18.08L19.29 29H15.21L8.96996 20.15H5.93996V29H2.45996ZM170.624 7.79004H185.354V10.91H174.104V16.94H184.064V20.09H174.104V25.91H185.354V29H170.624V7.79004Z" fill="white"/>
<path d="M36.2807 29L34.7207 24.71H25.0907L23.5007 29H19.7207L27.7607 7.79002H32.0807L40.0907 29H36.2807ZM33.6407 21.59L29.9207 11.21L26.1707 21.59H33.6407ZM41.7543 10.91V7.79002H57.5043V10.52L45.8043 25.91H57.2943V29H41.4243V26.24L53.0643 10.91H41.7543ZM75.392 29L73.832 24.71H64.202L62.612 29H58.832L66.872 7.79002H71.192L79.202 29H75.392ZM72.752 21.59L69.032 11.21L65.282 21.59H72.752ZM81.8256 29V7.79002H85.5756L96.1356 23.72V7.79002H99.5856V29H95.8656L85.2456 13.13V29H81.8256ZM113.321 10.64C112.201 10.64 111.231 10.85 110.411 11.27C109.611 11.69 108.951 12.25 108.431 12.95C107.911 13.65 107.521 14.47 107.261 15.41C107.021 16.33 106.901 17.3 106.901 18.32C106.901 19.36 107.031 20.35 107.291 21.29C107.551 22.23 107.941 23.06 108.461 23.78C109.001 24.48 109.681 25.04 110.501 25.46C111.321 25.88 112.291 26.09 113.411 26.09C114.791 26.09 115.941 25.79 116.861 25.19C117.801 24.59 118.391 23.78 118.631 22.76H122.111C121.951 23.78 121.611 24.69 121.091 25.49C120.591 26.29 119.961 26.97 119.201 27.53C118.441 28.07 117.561 28.49 116.561 28.79C115.561 29.07 114.491 29.21 113.351 29.21C111.691 29.21 110.231 28.94 108.971 28.4C107.731 27.86 106.691 27.11 105.851 26.15C105.011 25.19 104.381 24.05 103.961 22.73C103.541 21.41 103.331 19.96 103.331 18.38C103.331 16.84 103.541 15.41 103.961 14.09C104.401 12.75 105.041 11.6 105.881 10.64C106.721 9.66002 107.761 8.90002 109.001 8.36002C110.261 7.80002 111.721 7.52002 113.381 7.52002C115.721 7.52002 117.651 8.07002 119.171 9.17002C120.691 10.27 121.611 11.89 121.931 14.03H118.511C118.251 12.99 117.671 12.17 116.771 11.57C115.871 10.95 114.721 10.64 113.321 10.64ZM125.683 7.79002H140.413V10.91H129.163V16.94H139.123V20.09H129.163V25.91H140.413V29H125.683V7.79002ZM145.819 7.79002L152.149 25.28L158.449 7.79002H162.199L154.219 29H149.989L141.979 7.79002H145.819ZM190.76 7.79002L197.09 25.28L203.39 7.79002H207.14L199.16 29H194.93L186.92 7.79002H190.76ZM217.85 10.64C216.73 10.66 215.77 10.88 214.97 11.3C214.17 11.72 213.51 12.28 212.99 12.98C212.49 13.68 212.12 14.5 211.88 15.44C211.64 16.36 211.52 17.34 211.52 18.38C211.52 19.42 211.64 20.41 211.88 21.35C212.14 22.27 212.53 23.09 213.05 23.81C213.59 24.51 214.27 25.07 215.09 25.49C215.91 25.89 216.88 26.09 218 26.09C219.82 26.09 221.23 25.62 222.23 24.68C223.25 23.72 223.78 22.48 223.82 20.96H217.61V18.02H227.15C227.15 18.78 227.13 19.55 227.09 20.33C227.07 21.09 226.96 21.89 226.76 22.73C226.52 23.63 226.17 24.48 225.71 25.28C225.25 26.06 224.66 26.74 223.94 27.32C223.22 27.9 222.36 28.36 221.36 28.7C220.38 29.04 219.25 29.21 217.97 29.21C216.31 29.21 214.85 28.95 213.59 28.43C212.35 27.89 211.31 27.14 210.47 26.18C209.63 25.22 209 24.08 208.58 22.76C208.16 21.44 207.95 20 207.95 18.44C207.95 16.86 208.16 15.4 208.58 14.06C209 12.72 209.62 11.57 210.44 10.61C211.28 9.63002 212.32 8.87002 213.56 8.33002C214.82 7.79002 216.28 7.52002 217.94 7.52002C219.1 7.52002 220.17 7.67002 221.15 7.97002C222.15 8.25002 223.03 8.67002 223.79 9.23002C224.55 9.77002 225.18 10.45 225.68 11.27C226.18 12.07 226.51 12.99 226.67 14.03H223.16C222.9 12.97 222.29 12.14 221.33 11.54C220.39 10.94 219.23 10.64 217.85 10.64ZM230.888 7.79002H245.618V10.91H234.368V16.94H244.328V20.09H234.368V25.91H245.618V29H230.888V7.79002ZM249.374 29V7.79002H253.124L263.684 23.72V7.79002H267.134V29H263.414L252.794 13.13V29H249.374ZM275.53 29H272.05V7.79002H275.53V29ZM293.208 7.79002H297.138L289.488 21.05V29H286.008V21.08L278.268 7.79002H282.288L287.778 17.69L293.208 7.79002Z" fill="#232323"/>
</svg>
