<svg width="80" height="80" viewBox="0 0 80 80" fill="none" xmlns="http://www.w3.org/2000/svg">
<path d="M29.6449 6.00304C29.3522 6.32437 29.3522 5.94949 29.6582 19.1908C29.8444 27.4783 29.8311 28.1343 29.3122 29.8882C28.8599 31.4012 28.3543 32.2714 23.8172 39.2736C19.2269 46.3428 19.187 46.4231 19.7325 47.1059C20.0785 47.5344 20.8369 47.5344 21.2626 47.0926C21.4356 46.9051 23.0056 44.5621 24.7486 41.871C26.4916 39.1799 28.3277 36.3549 28.8333 35.5784L29.7513 34.1726L29.6715 35.0964C29.6183 35.6052 29.4586 36.5959 29.3122 37.2787C29.0461 38.4569 29.0461 38.5506 29.259 38.872C29.6582 39.4878 30.523 39.595 30.9621 39.0862C31.2947 38.6845 31.8535 35.8863 31.8535 34.5341C31.8535 33.6237 31.5342 33.2488 30.7758 33.3291C30.4964 33.3559 30.2569 33.3693 30.2569 33.3559C30.2569 33.1015 31.2282 31.3878 31.5475 31.0798L31.9866 30.6648L31.9733 28.2682C31.9733 26.9428 31.8668 21.4936 31.7471 16.1516C31.481 5.13279 31.5608 5.72188 30.4698 5.72188C30.0573 5.72188 29.8311 5.80221 29.6449 6.00304Z" fill="white"/>
<path d="M49.2036 6.00299C48.9774 6.25737 48.9508 6.55192 48.9109 9.06897L48.8577 11.8404L49.2169 12.1216C49.6693 12.4831 50.2148 12.4964 50.6272 12.1617C50.9333 11.9073 50.9466 11.827 51.0264 9.25641C51.1195 6.49836 51.1062 6.35109 50.7736 5.94943C50.4809 5.61472 49.5362 5.64149 49.2036 6.00299Z" fill="white"/>
<path d="M49.0968 14.8662C48.8174 15.1608 48.7908 15.308 48.7109 17.5707C48.6577 18.8962 48.5779 22.3772 48.538 25.2959L48.4448 30.6246L48.8972 31.053C49.15 31.294 49.5492 31.9099 49.7886 32.4186C50.0281 32.914 50.2144 33.3424 50.2144 33.3558C50.2144 33.3692 49.9749 33.3558 49.6955 33.3291C48.9371 33.2487 48.6178 33.6236 48.6178 34.534C48.6178 36.0202 49.2032 38.805 49.5758 39.1531C49.8818 39.4342 50.6402 39.4476 50.9462 39.1932C51.3853 38.8318 51.4252 38.4301 51.1458 37.2117C51.0127 36.5691 50.8531 35.6185 50.7998 35.1097L50.72 34.1725L51.6381 35.5783C52.1437 36.3549 53.9798 39.1799 55.7227 41.871C57.4657 44.5621 59.0357 46.8917 59.2087 47.0523C59.8739 47.6682 60.9916 47.1996 60.9916 46.3294C60.9916 46.0482 59.7542 44.0533 56.6408 39.2602C54.2592 35.5783 52.0771 32.0839 51.7844 31.4948C50.6535 29.1117 50.6003 28.4958 50.7865 20.1547L50.893 15.2277L50.5603 14.893C50.1346 14.4646 49.5092 14.4512 49.0968 14.8662Z" fill="white"/>
<path d="M28.1547 41.2953C27.7555 41.6434 25.8662 45.3118 25.8662 45.7403C25.8662 46.5302 26.6911 47.0256 27.4096 46.6641C27.8354 46.4499 29.8578 42.6877 29.8578 42.0986C29.8578 41.2819 28.7667 40.7731 28.1547 41.2953Z" fill="white"/>
<path d="M50.9464 41.4024C50.7468 41.5898 50.6138 41.8844 50.6138 42.0986C50.6138 42.6877 52.6362 46.4499 53.0619 46.6641C53.8602 47.0657 54.7118 46.4499 54.5654 45.5796C54.4723 45.0307 52.6761 41.6166 52.3168 41.2953C51.931 40.9606 51.3322 41.0007 50.9464 41.4024Z" fill="white"/>
<path d="M11.2305 47.3603C10.8979 47.695 10.7649 48.2439 10.9245 48.6054C11.0043 48.7661 12.1087 49.7702 13.3993 50.8413C14.6899 51.9124 15.741 52.8228 15.741 52.8764C15.7543 52.9433 15.6079 52.9835 15.435 52.9835C15.0757 52.9835 14.5568 53.5458 14.5568 53.9341C14.5568 54.3491 14.8362 54.8177 15.1822 54.9784C15.4217 55.0855 15.9139 55.0721 17.1779 54.9248C18.096 54.8043 18.9608 54.6571 19.0939 54.5901C19.493 54.3759 19.5729 53.8002 19.4531 52.0463C19.3201 50.1183 19.1471 49.7702 18.2823 49.7702C17.7101 49.7702 17.3642 50.0916 17.2312 50.7074L17.1513 51.1225L14.9028 49.2347C13.6654 48.1904 12.5477 47.2934 12.4147 47.213C12.0288 47.0122 11.5099 47.0791 11.2305 47.3603Z" fill="white"/>
<path d="M68.0299 47.2264C67.9101 47.2934 66.8058 48.2038 65.5684 49.2347L63.3199 51.1225L63.24 50.7075C63.107 50.0916 62.761 49.7703 62.1889 49.7703C61.3241 49.7703 61.1511 50.1184 61.0181 52.0463C60.8983 53.8002 60.9781 54.3759 61.3773 54.5901C61.5104 54.6571 62.3752 54.8044 63.2932 54.9248C64.5572 55.0721 65.0495 55.0855 65.289 54.9784C65.6349 54.8177 65.9144 54.3491 65.9144 53.9341C65.9144 53.5458 65.3955 52.9835 65.0362 52.9835C64.8632 52.9835 64.7169 52.9433 64.7302 52.8764C64.7302 52.8228 65.7813 51.9124 67.0719 50.8413C68.3625 49.7703 69.4668 48.7661 69.5467 48.6054C69.9458 47.7218 68.8681 46.731 68.0299 47.2264Z" fill="white"/>
<path d="M24.5489 48.3242C24.0832 48.5786 22.1539 52.2203 22.1406 52.8764C22.1406 53.7332 22.9655 54.2018 23.7372 53.7868C24.03 53.6261 26.1322 49.6631 26.1322 49.2614C26.1322 48.8866 25.6133 48.3242 25.2008 48.2305C25.0145 48.1904 24.7218 48.2305 24.5489 48.3242Z" fill="white"/>
<path d="M55.0578 48.2975C54.6986 48.4448 54.3394 48.9401 54.3394 49.2748C54.3394 49.6631 56.4549 53.6395 56.7343 53.7868C57.1467 54.001 57.7721 53.9474 58.0648 53.6529C58.5571 53.1575 58.4107 52.5952 57.3197 50.5334C56.7742 49.4891 56.242 48.5652 56.1622 48.4715C55.936 48.2439 55.3772 48.1502 55.0578 48.2975Z" fill="white"/>
<path d="M20.5707 55.6344C20.2115 55.9959 18.2822 59.7313 18.2822 60.0526C18.2822 60.2133 18.4286 60.4945 18.6015 60.6953C18.841 60.9898 19.0273 61.0702 19.4265 61.0568C20.0651 61.0434 20.1449 60.9363 21.3291 58.6736C22.3536 56.7189 22.4866 56.1432 22.0077 55.6612C21.6617 55.3131 20.9033 55.2997 20.5707 55.6344Z" fill="white"/>
<path d="M58.4638 55.6612C57.9715 56.1566 58.1046 56.7323 59.2089 58.7941C59.7544 59.825 60.2866 60.7622 60.3931 60.8559C60.4862 60.9631 60.7789 61.0434 61.0583 61.0568C61.4442 61.0702 61.6304 60.9898 61.8699 60.6953C62.0429 60.4945 62.1893 60.2133 62.1893 60.0526C62.1893 59.7179 60.2733 56.0093 59.9141 55.6478C59.5681 55.2997 58.8097 55.3131 58.4638 55.6612Z" fill="white"/>
<path d="M66.3802 57.2009C65.981 57.5892 65.9677 57.8034 66.3003 59.0083C67.4313 63.1052 65.8479 67.577 62.3753 70.0673C61.6169 70.6162 59.9804 71.4597 59.6744 71.4597C59.6078 71.4597 59.5812 71.3392 59.6211 71.1919C59.7808 70.5761 59.1688 69.8531 58.4902 69.8531C58.3572 69.8531 57.9447 70.0673 57.5455 70.3351C56.7339 70.884 55.6828 71.3794 55.0043 71.5266C54.7515 71.5802 54.4188 71.7409 54.2725 71.8748C54.0064 72.1157 53.9665 72.1157 52.8089 71.8748C52.1437 71.7409 51.2921 71.4999 50.9196 71.3392C49.9749 70.9643 48.6577 70.2949 48.5646 70.1342C48.4847 70.0137 49.7887 68.8088 50.2942 68.541C51.3187 68.0055 52.6493 68.0992 53.727 68.7954C54.8313 69.4916 55.736 69.1837 55.736 68.1126C55.736 67.644 55.6562 67.4833 55.3369 67.2289C54.1793 66.2783 52.4231 65.8365 50.9196 66.1043C49.5359 66.3453 48.7375 66.8407 46.6087 68.8088C43.5219 71.6605 42.7502 72.0488 40.169 72.0488C37.5878 72.0488 36.8161 71.6605 33.7294 68.8088C31.6005 66.8407 30.8022 66.3453 29.4185 66.1043C27.3695 65.7428 24.775 66.7603 24.5754 68.0055C24.5222 68.4071 24.5621 68.5544 24.8415 68.8355C25.2939 69.2908 25.8394 69.2774 26.5978 68.7954C27.7154 68.0858 29.006 67.9921 30.0438 68.541C30.443 68.7552 31.8533 69.987 31.8533 70.1342C31.8533 70.2681 30.6159 70.9242 29.5515 71.3392C29.179 71.4999 28.3275 71.7409 27.6622 71.8748C26.5047 72.1157 26.4647 72.1157 26.1986 71.8748C26.0523 71.7409 25.7197 71.5802 25.4669 71.5266C24.7883 71.3794 23.7372 70.884 22.9256 70.3351C22.5264 70.0673 22.114 69.8531 21.9809 69.8531C21.3024 69.8531 20.6903 70.5761 20.85 71.1919C20.9431 71.54 20.8367 71.5266 19.7989 71.058C15.2751 68.9962 12.8403 63.8148 14.1575 59.0351C14.4901 57.8168 14.4901 57.723 14.091 57.3348C13.6652 56.8929 12.9866 56.8796 12.5875 57.308C12.0287 57.8971 11.7227 59.5171 11.7227 61.753C11.7227 64.0826 11.9488 65.1671 12.827 67.0281C14.6232 70.8037 17.8696 73.2538 22.1805 74.0705C23.5775 74.3382 26.4514 74.3382 27.8618 74.0571C29.3387 73.7759 31.2413 73.0797 32.5452 72.3434L33.5963 71.7409L34.2882 72.2764C37.0956 74.5123 41.2201 74.9273 44.4533 73.2939C44.9589 73.0262 45.6907 72.571 46.0765 72.2496C46.7285 71.7409 46.8216 71.7007 47.0744 71.8614C48.6843 72.8789 50.8265 73.7224 52.7025 74.0839C54.3257 74.3918 57.6919 74.2847 59.1555 73.8964C61.5504 73.2404 63.2668 72.3166 64.8767 70.8037C66.1407 69.6121 66.939 68.5142 67.6308 67.0147C68.9347 64.2299 69.1742 60.9898 68.2961 58.1247C68.1364 57.6159 67.9235 57.2009 67.7373 57.067C67.3115 56.7725 66.7527 56.8126 66.3802 57.2009Z" fill="white"/>
<path d="M17.7367 63.1454C17.4573 63.373 17.4306 63.4935 17.4573 64.3906C17.4972 66.0374 18.2023 68.2866 18.8011 68.7419C19.3732 69.1837 20.411 68.6883 20.411 67.9787C20.411 67.7645 20.238 67.0549 20.0118 66.3989C19.799 65.7294 19.6127 64.9261 19.6127 64.6048C19.6127 63.8416 19.3865 63.1856 19.0805 63.0249C18.6813 62.8107 18.0693 62.8643 17.7367 63.1454Z" fill="white"/>
<path d="M61.3509 63.0517C61.0449 63.2927 60.8586 63.8818 60.8586 64.5914C60.8586 64.9261 60.6856 65.7294 60.4595 66.3989C60.2466 67.0549 60.0603 67.7645 60.0603 67.9787C60.0603 68.6883 61.0981 69.1837 61.6702 68.7419C62.2024 68.3402 62.7879 66.6399 62.9741 64.9663C63.1471 63.4266 62.881 62.8911 61.9629 62.8911C61.7501 62.8911 61.4706 62.9714 61.3509 63.0517Z" fill="white"/>
</svg>
