<svg width="32" height="32" viewBox="0 0 32 32" fill="none" xmlns="http://www.w3.org/2000/svg">
<path fill-rule="evenodd" clip-rule="evenodd" d="M18.848 4.48173V4.48175C19.0133 6.13486 19.096 6.96141 19.6488 7.1904C20.2016 7.41938 20.8445 6.89337 22.1303 5.84134C22.8035 5.29059 23.1401 5.01521 23.5249 5.03441C23.9097 5.0536 24.2138 5.35773 24.8221 5.96598L26.0336 7.17753L26.0337 7.17754C26.6419 7.78578 26.946 8.08991 26.9652 8.47474C26.9844 8.85958 26.709 9.19615 26.1583 9.86931C25.1062 11.1551 24.5802 11.798 24.8092 12.3509C25.0382 12.9037 25.8648 12.9863 27.5179 13.1516C28.3834 13.2382 28.8161 13.2815 29.0746 13.5672C29.3332 13.8528 29.3332 14.2829 29.3332 15.1431V16.8565C29.3332 17.7167 29.3332 18.1468 29.0746 18.4325C28.8161 18.7182 28.3834 18.7615 27.5181 18.848C25.8651 19.0133 25.0387 19.096 24.8097 19.6488C24.5807 20.2016 25.1066 20.8444 26.1585 22.13C26.7091 22.803 26.9845 23.1395 26.9653 23.5243C26.9461 23.9092 26.642 24.2133 26.0337 24.8216L24.8222 26.0331C24.2139 26.6414 23.9098 26.9455 23.5249 26.9647C23.1401 26.9839 22.8035 26.7085 22.1304 26.1577C20.8446 25.1057 20.2017 24.5797 19.6489 24.8087C19.0961 25.0377 19.0134 25.8644 18.848 27.5177C18.7615 28.3833 18.7182 28.8161 18.4325 29.0746C18.1468 29.3332 17.7167 29.3332 16.8565 29.3332H15.1431C14.2829 29.3332 13.8528 29.3332 13.5672 29.0746C13.2815 28.8161 13.2382 28.3834 13.1516 27.5179C12.9863 25.8648 12.9037 25.0382 12.3509 24.8092C11.798 24.5802 11.1551 25.1063 9.86927 26.1583C9.1961 26.7091 8.85952 26.9845 8.47468 26.9653C8.08985 26.9461 7.78572 26.642 7.17747 26.0337L5.96592 24.8222C5.35767 24.2139 5.05354 23.9098 5.03435 23.5249C5.01515 23.1401 5.29054 22.8035 5.8413 22.1304C6.89335 20.8445 7.41937 20.2016 7.19039 19.6488C6.9614 19.096 6.13485 19.0133 4.48175 18.848C3.61631 18.7615 3.1836 18.7182 2.92505 18.4325C2.6665 18.1468 2.6665 17.7167 2.6665 16.8565V15.1431C2.6665 14.2829 2.6665 13.8528 2.92505 13.5672C3.1836 13.2815 3.61637 13.2382 4.48191 13.1516C6.13524 12.9863 6.96191 12.9036 7.19089 12.3508C7.41987 11.798 6.89375 11.155 5.84151 9.86889C5.29064 9.19561 5.01521 8.85897 5.03441 8.47414C5.0536 8.0893 5.35773 7.78518 5.96598 7.17692L7.17753 5.96538C7.78578 5.35712 8.08991 5.053 8.47474 5.0338C8.85958 5.01461 9.19616 5.28999 9.86933 5.84077C11.1552 6.89283 11.7981 7.41886 12.3509 7.18987C12.9037 6.96089 12.9864 6.13445 13.1517 4.48158C13.2382 3.61626 13.2815 3.1836 13.5672 2.92505C13.8528 2.6665 14.2829 2.6665 15.1431 2.6665H16.8565C17.7167 2.6665 18.1468 2.6665 18.4325 2.92505C18.7182 3.1836 18.7615 3.61631 18.848 4.48173ZM15.9998 21.3332C18.9454 21.3332 21.3332 18.9454 21.3332 15.9998C21.3332 13.0543 18.9454 10.6665 15.9998 10.6665C13.0543 10.6665 10.6665 13.0543 10.6665 15.9998C10.6665 18.9454 13.0543 21.3332 15.9998 21.3332Z" fill="#B0A9F5"/>
</svg>
